<?xml version="1.0" encoding="UTF-8" standalone="no"?>
<!-- Created with Inkscape (http://www.inkscape.org/) -->

<svg
   xmlns:dc="http://purl.org/dc/elements/1.1/"
   xmlns:cc="http://creativecommons.org/ns#"
   xmlns:rdf="http://www.w3.org/1999/02/22-rdf-syntax-ns#"
   xmlns:svg="http://www.w3.org/2000/svg"
   xmlns="http://www.w3.org/2000/svg"
   xmlns:sodipodi="http://sodipodi.sourceforge.net/DTD/sodipodi-0.dtd"
   xmlns:inkscape="http://www.inkscape.org/namespaces/inkscape"
   width="210mm"
   height="297mm"
   viewBox="0 0 210 297"
   version="1.1"
   id="svg8"
   inkscape:version="0.92.1 r15371"
   sodipodi:docname="aar_logo_svg.svg">
  <defs
     id="defs2" />
  <sodipodi:namedview
     id="base"
     pagecolor="#ffffff"
     bordercolor="#666666"
     borderopacity="1.0"
     inkscape:pageopacity="0.0"
     inkscape:pageshadow="2"
     inkscape:zoom="0.35"
     inkscape:cx="400"
     inkscape:cy="560"
     inkscape:document-units="mm"
     inkscape:current-layer="layer1"
     showgrid="false"
     inkscape:window-width="716"
     inkscape:window-height="405"
     inkscape:window-x="4522"
     inkscape:window-y="268"
     inkscape:window-maximized="0" />
  <metadata
     id="metadata5">
    <rdf:RDF>
      <cc:Work
         rdf:about="">
        <dc:format>image/svg+xml</dc:format>
        <dc:type
           rdf:resource="http://purl.org/dc/dcmitype/StillImage" />
        <dc:title></dc:title>
      </cc:Work>
    </rdf:RDF>
  </metadata>
  <g
     inkscape:label="Layer 1"
     inkscape:groupmode="layer"
     id="layer1">
    <g
       id="g4496"
       transform="translate(-103.56548,-80.130952)">
      <path
         style="fill:#fdfdfd;stroke-width:0.26458335"
         d="m 122.46429,244.08334 v -15.61042 h 74.08333 74.08334 v 15.61042 15.61041 h -74.08334 -74.08333 z"
         id="path4512"
         inkscape:connector-curvature="0" />
      <path
         style="fill:#d0d0d0;stroke-width:0.26458335"
         d="m 123.38687,259.09844 c -0.0802,-0.32742 -0.11224,-3.33375 -0.0712,-6.68073 l 0.0747,-6.08542 h 1.32292 1.32292 l 0.0746,6.08542 c 0.0411,3.34698 0.009,6.35331 -0.0712,6.68073 -0.12411,0.50662 -0.32171,0.59531 -1.32638,0.59531 -1.00467,0 -1.20227,-0.0887 -1.32638,-0.59531 z m 4.69731,0.0697 c -0.47491,-0.76047 -0.46418,-11.88736 0.0121,-12.53871 0.25496,-0.34868 0.63074,-0.44432 1.49817,-0.3813 l 1.15784,0.0841 0.81103,2.18282 c 0.44606,1.20054 0.89817,2.18281 1.00467,2.18281 0.10651,0 0.22823,-0.98227 0.2705,-2.18281 l 0.0768,-2.18282 1.12523,-0.0814 c 1.00515,-0.0727 1.15339,-0.007 1.38906,0.61254 0.41718,1.09724 0.32677,11.7992 -0.10448,12.36729 -0.42734,0.56296 -1.89818,0.61557 -2.42694,0.0868 -0.20692,-0.20691 -0.68721,-1.24871 -1.06732,-2.3151 -0.38012,-1.06639 -0.79763,-2.052 -0.92781,-2.19025 -0.14041,-0.1491 -0.2367,0.62243 -0.2367,1.89659 0,1.18137 -0.0723,2.33628 -0.1606,2.56646 -0.24439,0.63689 -2.00561,0.55902 -2.42159,-0.10706 z m 12.17334,0.1298 c -0.24362,-0.2767 -0.33073,-1.94091 -0.33073,-6.3183 0,-3.26845 0.0723,-6.13098 0.1606,-6.36116 0.12988,-0.33846 0.6132,-0.41852 2.52668,-0.41852 2.46165,0 3.37274,0.27159 4.28216,1.27649 1.10144,1.21707 1.13283,4.09951 0.0618,5.67584 l -0.57949,0.85288 0.73819,2.38125 c 0.406,1.30969 0.67274,2.58961 0.59275,2.84427 -0.17518,0.55771 -2.07448,0.65466 -2.59175,0.13229 -0.18013,-0.1819 -0.61055,-1.31299 -0.95649,-2.51354 -0.34594,-1.20054 -0.72584,-2.18281 -0.84422,-2.18281 -0.11838,0 -0.21524,0.94276 -0.21524,2.09503 0,1.15226 -0.0723,2.28336 -0.1606,2.51354 -0.20635,0.53774 -2.21526,0.55477 -2.68367,0.0228 z m 4.016,-7.69292 c 0.80331,-0.80331 0.34122,-2.75922 -0.65187,-2.75922 -0.45177,0 -0.51986,0.18481 -0.51986,1.41111 0,1.82116 0.32489,2.19495 1.17173,1.34811 z m 6.28609,7.66268 c -1.38482,-0.60484 -1.63705,-1.56752 -1.63658,-6.24622 5.3e-4,-4.42789 0.23613,-5.35271 1.62301,-6.36878 1.65503,-1.21252 4.52186,-0.70569 5.55058,0.9813 0.43417,0.71198 0.49707,1.37803 0.49793,5.27285 0.001,5.26733 -0.19151,5.94121 -1.84643,6.45771 -1.36393,0.42568 -3.08315,0.38592 -4.18851,-0.0969 z m 2.86748,-2.63392 c 0.14192,-0.37327 0.25803,-2.07692 0.25803,-3.78589 0,-3.28545 -0.28466,-4.25406 -1.15236,-3.9211 -0.37679,0.14459 -0.43514,0.69436 -0.43514,4.09994 0,2.16312 0.0794,4.01233 0.17639,4.10934 0.37683,0.37683 0.90658,0.14606 1.15308,-0.50229 z m 4.6202,2.46462 c -0.0802,-0.32742 -0.11225,-3.33375 -0.0712,-6.68073 l 0.0746,-6.08542 h 1.71979 1.71979 l 0.35763,1.5875 c 0.1967,0.87313 0.48526,2.06375 0.64124,2.64584 l 0.2836,1.05833 0.49887,-2.24896 c 0.69091,-3.11467 0.6291,-3.04271 2.61312,-3.04271 h 1.69096 l 0.0746,6.08542 c 0.0411,3.34698 0.009,6.35331 -0.0712,6.68073 -0.11781,0.4809 -0.32995,0.59531 -1.10381,0.59531 -1.33799,0 -1.65373,-0.54114 -1.69814,-2.91041 l -0.0372,-1.98438 -0.44797,1.98438 c -0.56946,2.52249 -0.75523,2.91041 -1.39377,2.91041 -0.82699,0 -1.21032,-0.593 -1.55611,-2.40729 -0.49363,-2.58993 -0.7608,-2.74909 -0.76988,-0.45862 -0.0106,2.67297 -0.10178,2.86591 -1.35423,2.86591 -0.84335,0 -1.05083,-0.10549 -1.17082,-0.59531 z m 11.04731,0.0697 c -0.46972,-0.75216 -0.46464,-11.88673 0.006,-12.52999 0.28877,-0.39491 0.74512,-0.44649 3.37344,-0.3813 l 3.03949,0.0754 v 1.19063 1.19062 l -1.71979,0.1323 -1.71979,0.13229 v 1.19062 1.19063 l 1.32291,0.13229 1.32292,0.13229 v 1.19063 1.19062 l -1.32292,0.13229 -1.32291,0.13229 -0.08,1.38907 -0.08,1.38906 h 1.48643 c 1.79582,0 2.50997,0.33526 2.50997,1.1783 0,1.4278 -0.0922,1.46753 -3.40424,1.46753 -2.78948,0 -3.1143,-0.05 -3.41128,-0.52557 z m -2.83074,-17.12993 c -0.9167,-0.23285 -1.67468,-0.87409 -2.1049,-1.78071 -0.54376,-1.14588 -0.60477,-9.15382 -0.0777,-10.19712 1.03668,-2.052 5.93379,-2.09552 6.77683,-0.0602 0.46945,1.13333 0.47821,2.95401 0.0156,3.24658 -0.55207,0.34918 -1.94416,0.3106 -2.31902,-0.0643 -0.17463,-0.17462 -0.3175,-0.63629 -0.3175,-1.02593 0,-0.82029 -0.67572,-1.52626 -1.07688,-1.1251 -0.1548,0.15479 -0.23086,1.86465 -0.18723,4.20889 0.0697,3.7473 0.10041,3.94818 0.60265,3.94818 0.4333,0 0.54389,-0.20348 0.61047,-1.12328 0.0959,-1.32563 0.70859,-1.78891 2.03628,-1.53983 0.62353,0.11697 0.91582,0.34107 1.02804,0.7882 0.22986,0.91583 -0.22693,2.9995 -0.79814,3.64076 -0.92798,1.04177 -2.62523,1.48097 -4.18854,1.08386 z m 36.40133,-0.24442 c -1.69516,-0.86352 -1.88261,-1.51926 -1.87934,-6.57404 0.002,-3.09223 0.10734,-4.70463 0.33708,-5.15937 0.99116,-1.96191 5.52448,-2.13168 6.63687,-0.24855 0.24171,0.40918 0.42949,1.30417 0.42949,2.047 0,1.39513 -0.21814,1.64113 -1.45521,1.64113 -1.11502,0 -1.4552,-0.27738 -1.4552,-1.18653 0,-0.90192 -0.57021,-1.62869 -1.04675,-1.33417 -0.17194,0.10627 -0.27617,1.66573 -0.27617,4.13212 0,3.3882 0.0613,3.98496 0.42358,4.12398 0.54227,0.20809 0.89014,-0.34622 0.89528,-1.42661 0.005,-1.05154 0.74027,-1.51769 2.01629,-1.27831 0.89713,0.1683 0.89818,0.17026 0.89428,1.67787 -0.004,1.71715 -0.34938,2.55251 -1.36545,3.30674 -0.97433,0.72325 -3.01359,0.86006 -4.15475,0.27874 z m -79.90624,-0.0606 c -0.39945,-0.26055 -0.34173,-0.85889 0.79424,-8.23323 0.73468,-4.76933 0.79061,-4.87496 2.63277,-4.97262 1.30463,-0.0692 1.50259,-0.0102 1.77812,0.52917 0.40576,0.79438 2.49963,12.33129 2.29743,12.65846 -0.22976,0.37176 -2.44036,0.30652 -2.6791,-0.0791 -0.11263,-0.1819 -0.26848,-0.80698 -0.34634,-1.38906 -0.12941,-0.96745 -0.20957,-1.05834 -0.93345,-1.05834 -0.73665,0 -0.81136,0.0923 -1.07107,1.32292 -0.2652,1.25666 -0.32493,1.32638 -1.19249,1.39197 -0.50232,0.038 -1.07837,-0.0386 -1.28011,-0.1702 z m 3.67004,-6.315 c -0.003,-0.73802 -0.0697,-0.89052 -0.26053,-0.59531 -0.337,0.52146 -0.337,1.5875 0,1.5875 0.14552,0 0.26276,-0.44648 0.26053,-0.99219 z m 4.39798,6.12993 c -0.32117,-0.83697 -0.17869,-12.42214 0.1569,-12.75774 0.44205,-0.44204 2.98141,-0.40893 3.35712,0.0438 0.16491,0.1987 0.49409,1.3298 0.73152,2.51355 0.23742,1.18374 0.51473,2.15226 0.61623,2.15226 0.1015,0 0.33449,-0.8632 0.51774,-1.91823 0.47284,-2.72219 0.77412,-3.10885 2.42239,-3.10885 2.12249,0 2.09167,-0.0984 2.09167,6.67741 0,6.74361 -0.0418,6.90716 -1.73034,6.76948 l -1.04778,-0.0854 -0.1323,-2.51354 -0.13229,-2.51355 -0.34496,1.7198 c -0.64123,3.1969 -0.78589,3.48005 -1.73098,3.3883 -0.82907,-0.0805 -0.8379,-0.0973 -1.36364,-2.59455 l -0.52917,-2.51355 -0.0669,1.98438 c -0.10427,3.09081 -0.14397,3.175 -1.49728,3.175 -0.81121,0 -1.2053,-0.12515 -1.31788,-0.41851 z m 11.12829,0.24212 c -0.22043,-0.22043 -0.23525,-12.32694 -0.0158,-12.89885 0.13321,-0.34713 0.66568,-0.41851 3.12209,-0.41851 3.21291,0 3.59648,0.14574 3.59648,1.36652 0,0.93399 -0.63807,1.27931 -2.36386,1.27931 h -1.34031 v 1.19063 1.19062 h 1.18132 c 1.36442,0 1.87462,0.58721 1.59931,1.8407 -0.17201,0.78315 -0.70773,1.05948 -2.06685,1.06611 -0.7278,0.004 -0.73996,0.0291 -0.66146,1.39267 l 0.08,1.38906 1.78391,0.0782 c 1.64405,0.0721 1.7967,0.12911 1.94692,0.72761 0.0896,0.35718 0.0883,0.94707 -0.003,1.31087 -0.16584,0.66076 -0.16946,0.66146 -3.42416,0.66146 -1.79199,0 -3.33753,-0.0794 -3.43455,-0.17639 z m 7.92171,-0.24212 c -0.32117,-0.83697 -0.17869,-12.42214 0.1569,-12.75774 0.41045,-0.41044 3.21064,-0.40989 4.99066,9.9e-4 1.82944,0.42229 2.3624,1.25189 2.36377,3.67948 7.9e-4,1.41234 -0.1216,1.92967 -0.63587,2.68749 l -0.63686,0.93847 0.79351,2.54832 c 0.43643,1.40158 0.72676,2.72229 0.64517,2.93491 -0.18671,0.48656 -2.3709,0.53118 -2.7342,0.0559 -0.13903,-0.1819 -0.52485,-1.28323 -0.85737,-2.4474 -0.33253,-1.16416 -0.70961,-2.22977 -0.83795,-2.36802 -0.13615,-0.14664 -0.23336,0.69856 -0.23336,2.02889 0,1.25412 -0.0723,2.46856 -0.1606,2.69875 -0.22692,0.59134 -2.62688,0.59134 -2.8538,0 z m 4.06672,-7.77426 c 0.24105,-0.15242 0.39087,-0.66307 0.39087,-1.33223 0,-0.66916 -0.14982,-1.17981 -0.39087,-1.33223 -0.8535,-0.53972 -1.05232,-0.28802 -1.05232,1.33223 0,1.62025 0.19882,1.87195 1.05232,1.33223 z m 5.1937,7.77426 c -0.32117,-0.83697 -0.17869,-12.42214 0.1569,-12.75774 0.41076,-0.41076 2.12924,-0.41076 2.54,0 0.3356,0.3356 0.47808,11.92077 0.1569,12.75774 -0.22692,0.59134 -2.62688,0.59134 -2.8538,0 z m 12.8984,0.0183 c -0.24321,-0.63379 1.95446,-12.26983 2.40187,-12.71724 0.46778,-0.46779 2.71003,-0.50013 3.16221,-0.0456 0.39022,0.39224 2.65821,12.49892 2.41514,12.89221 -0.2385,0.3859 -2.44532,0.33676 -2.69093,-0.0599 -0.11263,-0.1819 -0.26848,-0.80698 -0.34635,-1.38906 -0.12941,-0.96745 -0.20957,-1.05833 -0.93345,-1.05833 -0.73661,0 -0.81137,0.0923 -1.07126,1.32291 l -0.27939,1.32292 -1.24653,0.0807 c -0.95661,0.062 -1.28486,-0.0191 -1.41131,-0.34863 z m 4.18847,-6.26136 c -0.12267,-0.83579 -0.1345,-0.84321 -0.36232,-0.22736 -0.2558,0.6915 -0.0911,1.44997 0.26679,1.22877 0.12228,-0.0756 0.16527,-0.52621 0.0955,-1.00141 z m 4.62475,6.48514 c -0.22043,-0.22043 -0.23524,-12.32694 -0.0158,-12.89885 0.20017,-0.52164 2.10145,-0.5755 2.60321,-0.0738 0.18962,0.18962 0.6171,1.11236 0.94995,2.05052 0.85569,2.41176 1.04874,2.47161 1.04874,0.32511 0,-1.03585 0.0723,-2.07169 0.1606,-2.30188 0.19384,-0.50511 1.95508,-0.57825 2.43232,-0.10101 0.37226,0.37226 0.4545,12.28597 0.0888,12.86268 -0.14255,0.22479 -0.63246,0.31842 -1.38453,0.26459 l -1.16392,-0.0833 -0.98073,-2.64584 -0.98074,-2.64583 -0.0119,2.29347 c -0.0156,2.99578 -0.078,3.13049 -1.45136,3.13049 -0.61502,0 -1.19759,-0.0794 -1.29461,-0.17639 z m 11.29163,-0.23286 c -0.21284,-0.55465 1.91845,-12.23955 2.32091,-12.72448 0.3795,-0.45727 2.80171,-0.47917 3.23936,-0.0293 0.38149,0.39215 2.65406,12.51743 2.41774,12.89981 -0.23503,0.38029 -2.44334,0.32478 -2.68624,-0.0675 -0.11263,-0.1819 -0.26848,-0.80698 -0.34634,-1.38906 -0.12941,-0.96745 -0.20957,-1.05834 -0.93345,-1.05834 -0.73662,0 -0.81138,0.0923 -1.07127,1.32292 l -0.27938,1.32292 -1.24654,0.0807 c -0.96629,0.0626 -1.28436,-0.0178 -1.41479,-0.35771 z m 4.19195,-6.25228 c -0.12267,-0.83579 -0.1345,-0.84321 -0.36231,-0.22736 -0.25581,0.6915 -0.0911,1.44997 0.26678,1.22877 0.12228,-0.0756 0.16527,-0.52621 0.0955,-1.00141 z m 12.73661,6.23983 c -0.21789,-0.56779 1.9076,-12.20828 2.31986,-12.70502 0.18841,-0.22702 0.83032,-0.36703 1.68271,-0.36703 1.16274,0 1.42558,0.093 1.6819,0.59531 0.40151,0.78681 2.49144,12.32275 2.29118,12.64678 -0.22977,0.37176 -2.44036,0.30652 -2.67911,-0.0791 -0.11262,-0.1819 -0.26848,-0.80698 -0.34634,-1.38906 -0.12941,-0.96745 -0.20957,-1.05834 -0.93345,-1.05834 -0.73661,0 -0.81137,0.0923 -1.07126,1.32292 l -0.27939,1.32292 -1.24654,0.0807 c -0.97892,0.0634 -1.28368,-0.0161 -1.41956,-0.37016 z m 4.14312,-6.12674 c -0.003,-0.73802 -0.0697,-0.89052 -0.26053,-0.59531 -0.337,0.52146 -0.337,1.5875 0,1.5875 0.14552,0 0.26276,-0.44648 0.26053,-0.99219 z m 4.70041,6.39455 c -0.23548,-0.23601 -0.27085,-12.31413 -0.0378,-12.92135 0.32647,-0.85075 5.32928,-0.41197 6.49282,0.56947 0.68783,0.58018 1.02001,2.44168 1.01319,5.67762 -0.008,3.69871 -0.25961,4.83478 -1.30297,5.87882 -0.78404,0.78454 -0.91893,0.82056 -3.39164,0.90568 -1.41632,0.0488 -2.66442,-8.4e-4 -2.77356,-0.11024 z m 3.98198,-2.80944 c 0.21619,-0.21619 0.3175,-1.4796 0.3175,-3.95944 0,-3.38357 -0.0379,-3.66224 -0.53464,-3.92807 -0.29404,-0.15737 -0.65123,-0.21407 -0.79375,-0.12599 -0.28909,0.17867 -0.36711,7.87022 -0.0827,8.15461 0.271,0.271 0.74231,0.21018 1.09361,-0.14111 z m 4.99953,2.79467 c -0.2257,-0.2257 -0.24774,-12.32226 -0.0235,-12.90658 0.13331,-0.34742 0.66784,-0.41851 3.14669,-0.41851 3.24317,0 3.30729,0.0306 3.30729,1.57828 0,0.85576 -0.46875,1.05828 -2.46261,1.06394 l -1.27198,0.004 0.0813,1.12448 0.0814,1.12448 1.32292,0.13229 1.32292,0.13229 0.0854,1.04779 c 0.10382,1.27329 -0.39002,1.73034 -1.86962,1.73034 h -1.02159 l 0.08,1.38906 0.08,1.38906 1.85209,0.1323 1.85208,0.13229 v 1.19062 1.19063 l -3.18932,0.0739 c -1.75413,0.0406 -3.27217,-0.009 -3.37344,-0.11024 z m 7.6494,-0.24985 c -0.32117,-0.83697 -0.17869,-12.42214 0.1569,-12.75774 0.4522,-0.4522 2.80963,-0.40317 3.28103,0.0682 0.21216,0.21215 0.57717,1.34018 0.81114,2.50673 0.23398,1.16655 0.51438,2.06601 0.62313,1.9988 0.10874,-0.0672 0.34405,-0.92734 0.52291,-1.91141 0.47279,-2.60133 0.77852,-2.97985 2.40679,-2.97985 2.12249,0 2.09167,-0.0984 2.09167,6.67741 0,6.74361 -0.0418,6.90716 -1.73034,6.76948 l -1.04779,-0.0854 -0.13229,-2.51354 -0.13229,-2.51355 -0.35095,1.5875 c -0.79108,3.57835 -0.78809,3.57188 -1.65193,3.57188 -0.91793,0 -0.96377,-0.0873 -1.59042,-3.02879 l -0.4539,-2.13059 -0.0269,2.16118 c -0.0357,2.86443 -0.10181,2.9982 -1.48213,2.9982 -0.78999,0 -1.18273,-0.12696 -1.29461,-0.41851 z m 12.98038,0.24212 c -0.097,-0.097 -0.17639,-1.32858 -0.17639,-2.73681 0,-2.382 -0.0897,-2.81683 -1.28651,-6.23976 -0.70758,-2.02363 -1.23344,-3.82816 -1.16858,-4.01006 0.16188,-0.45397 2.30981,-0.42771 2.69209,0.0329 0.16599,0.20001 0.51882,1.00211 0.78407,1.78246 l 0.48227,1.41882 0.48019,-1.44572 c 0.2641,-0.79515 0.63172,-1.59726 0.81693,-1.78246 0.47864,-0.47865 2.39611,-0.43701 2.58535,0.0561 0.0829,0.21609 -0.38059,1.89074 -1.03003,3.72145 -1.05905,2.98542 -1.18078,3.57051 -1.18078,5.67532 0,3.24309 -0.20774,3.7041 -1.66915,3.7041 -0.63419,0 -1.23245,-0.0794 -1.32946,-0.17639 z"
         id="path4510"
         inkscape:connector-curvature="0" />
      <path
         style="fill:#b0b0b0;stroke-width:0.26458335"
         d="m 123.53193,259.18198 c -0.16498,-0.30828 -0.27389,-2.82567 -0.27389,-6.3311 0,-4.93752 0.063,-5.88233 0.41577,-6.2351 0.4798,-0.4798 1.24867,-0.53482 1.98287,-0.14188 0.48309,0.25853 0.51178,0.61327 0.51178,6.32836 0,3.32995 -0.0723,6.2428 -0.1606,6.47298 -0.24452,0.6372 -2.12286,0.56645 -2.47593,-0.0933 z m 4.64921,0.0933 c -0.0883,-0.23018 -0.1606,-3.14303 -0.1606,-6.47298 0,-5.84118 0.0192,-6.06474 0.54469,-6.34598 0.29957,-0.16033 0.88637,-0.21646 1.30399,-0.12473 0.6734,0.1479 0.85238,0.42397 1.58188,2.44003 1.23682,3.41813 1.31481,3.44945 1.32389,0.5316 0.008,-2.49746 0.0305,-2.5956 0.66951,-2.88674 0.49481,-0.22545 0.8281,-0.22545 1.32292,0 l 0.66145,0.30139 v 6.06944 c 0,3.3382 -0.0723,6.25779 -0.1606,6.48797 -0.22096,0.57583 -1.7632,0.54569 -2.27762,-0.0445 -0.22196,-0.25466 -0.71852,-1.41552 -1.10347,-2.57969 -1.06571,-3.22292 -1.21214,-3.26533 -1.21675,-0.35236 -0.002,1.40692 -0.0763,2.74638 -0.16466,2.97656 -0.22141,0.57699 -2.10322,0.57699 -2.32463,0 z m 12.17604,0.0136 c -0.0912,-0.23765 -0.16581,-3.1566 -0.16581,-6.48655 0,-7.14102 -0.17379,-6.78289 3.15648,-6.50431 2.24896,0.18813 3.05627,0.62038 3.8054,2.03753 0.63207,1.19571 0.46812,3.59855 -0.32117,4.707 -0.6999,0.98292 -0.69576,1.11851 0.10617,3.47627 0.3638,1.06963 0.66146,2.22157 0.66146,2.55989 0,0.53801 -0.12861,0.61511 -1.02594,0.61511 -0.56426,0 -1.14571,-0.14883 -1.29211,-0.33073 -0.14639,-0.1819 -0.58391,-1.38037 -0.97226,-2.66327 -0.91335,-3.01721 -1.29757,-2.92085 -1.47219,0.36924 l -0.13229,2.49247 -1.09097,0.0797 c -0.81564,0.0596 -1.1328,-0.0293 -1.25677,-0.35237 z m 4.34959,-7.9754 c 0.38641,-1.01633 0.0543,-2.18163 -0.72263,-2.53562 -0.8503,-0.38743 -1.13739,0.034 -1.14288,1.67759 -0.005,1.38552 0.10717,1.56546 0.97263,1.56546 0.43287,0 0.70627,-0.21662 0.89288,-0.70743 z m 6.1512,7.99308 c -1.52189,-0.66192 -1.71488,-1.4521 -1.62144,-6.63919 l 0.083,-4.6064 0.84171,-0.84102 c 0.68729,-0.68674 1.10407,-0.86279 2.27182,-0.95963 1.74261,-0.14451 2.89227,0.37111 3.56272,1.59788 0.39349,0.72 0.4675,1.54651 0.4675,5.22104 0,4.79253 -0.10973,5.22756 -1.53824,6.09858 -0.99349,0.60578 -2.83612,0.6641 -4.06704,0.12874 z m 2.76783,-6.27798 c -0.0643,-3.5211 -0.12957,-4.02815 -0.55149,-4.28652 -0.38294,-0.2345 -0.55469,-0.19045 -0.85989,0.22056 -0.5757,0.77528 -0.54743,7.61693 0.0339,8.19824 0.31591,0.31591 0.53908,0.34898 0.93286,0.13823 0.48391,-0.25898 0.51286,-0.53709 0.44465,-4.27051 z m 4.45326,6.24673 c -0.0883,-0.23018 -0.1606,-3.14303 -0.1606,-6.47298 0,-5.91937 0.0127,-6.06125 0.56731,-6.35809 0.67485,-0.36117 2.59934,-0.15662 2.8857,0.30672 0.11095,0.17954 0.40701,1.40895 0.65791,2.73204 0.2509,1.32309 0.54859,2.50764 0.66154,2.63234 0.11295,0.1247 0.34558,-0.47062 0.51696,-1.32292 0.73269,-3.64378 0.93169,-4.18393 1.63215,-4.43026 0.36912,-0.12982 1.10796,-0.15408 1.64187,-0.0539 l 0.97075,0.18211 -0.0707,6.53558 -0.0707,6.53559 -0.8983,0.0858 c -0.54024,0.0516 -0.98684,-0.0539 -1.12043,-0.26458 -0.12217,-0.1927 -0.22395,-1.65012 -0.22618,-3.23872 -0.002,-1.58861 -0.0627,-2.82968 -0.13448,-2.75794 -0.0717,0.0717 -0.38202,1.3715 -0.68951,2.88837 -0.59719,2.94601 -0.8168,3.41939 -1.58632,3.41939 -0.51438,0 -0.83207,-0.86882 -1.64469,-4.49791 l -0.3851,-1.7198 -0.0309,2.59709 c -0.017,1.42839 -0.15419,2.82738 -0.30483,3.10885 -0.34734,0.649 -1.97179,0.71751 -2.21134,0.0933 z m 11.1125,0 c -0.0883,-0.23018 -0.1606,-3.14303 -0.1606,-6.47298 0,-7.10554 -0.25943,-6.60226 3.40329,-6.60226 2.51506,0 3.21129,0.28682 3.21129,1.32292 0,0.893 -0.73699,1.32292 -2.26786,1.32292 h -1.43631 v 1.32291 1.32292 h 0.90441 c 1.46127,0 1.74143,0.21283 1.74143,1.32292 0,1.11008 -0.28016,1.32291 -1.74143,1.32291 h -0.90441 v 1.5875 1.5875 h 1.72547 c 1.55921,0 1.75303,0.0605 2.01159,0.62799 0.2077,0.45585 0.2036,0.78222 -0.015,1.19063 -0.27995,0.52309 -0.51232,0.56263 -3.30621,0.56263 -2.49617,0 -3.03229,-0.0709 -3.16569,-0.41851 z m -46.41987,-17.54109 c -0.39009,-0.24726 -0.30694,-0.97902 0.92057,-8.10186 0.87597,-5.08288 0.91267,-5.15937 2.4759,-5.15937 0.69213,0 1.37866,0.14883 1.52563,0.33073 0.14697,0.1819 0.76839,3.06233 1.38093,6.40096 1.05932,5.77366 1.09062,6.08713 0.64066,6.41615 -0.89795,0.6566 -2.2216,0.18844 -2.22762,-0.78788 -0.009,-1.44846 -0.27741,-1.80886 -1.28458,-1.7244 -0.88674,0.0744 -0.96649,0.15378 -1.12171,1.11679 -0.23146,1.43595 -1.3116,2.14157 -2.30978,1.50888 z m 3.89956,-6.05133 c -0.0145,-0.40019 -0.11718,-1.02526 -0.22816,-1.38907 -0.23071,-0.75623 -0.39728,-0.47365 -0.66288,1.12448 -0.14573,0.87688 -0.102,0.99219 0.37626,0.99219 0.42035,0 0.53527,-0.16242 0.51478,-0.7276 z m 4.72273,5.99807 c -0.41961,-0.2444 -0.46302,-0.83693 -0.46302,-6.32031 0,-3.32785 0.0723,-6.23896 0.1606,-6.46915 0.11834,-0.30839 0.5276,-0.41851 1.5554,-0.41851 1.63214,0 1.67449,0.0637 2.41798,3.63802 0.24973,1.20055 0.53011,2.18281 0.62308,2.18281 0.093,0 0.38789,-1.10132 0.6554,-2.44739 0.66853,-3.36391 0.67523,-3.37344 2.37375,-3.37344 1.04858,0 1.45939,0.10894 1.57819,0.41851 0.0883,0.23019 0.1606,3.14303 0.1606,6.47299 0,5.76276 -0.0252,6.06797 -0.52374,6.33476 -0.28806,0.15416 -0.82384,0.20498 -1.19063,0.11292 -0.66173,-0.16608 -0.66688,-0.18967 -0.66688,-3.04911 0,-1.58496 -0.10429,-2.88174 -0.23176,-2.88174 -0.12747,0 -0.44174,1.10133 -0.69839,2.4474 -0.56465,2.96151 -0.75696,3.37344 -1.57487,3.37344 -0.72377,0 -0.73416,-0.0254 -1.35317,-3.3073 -0.24702,-1.30968 -0.55155,-2.49435 -0.67672,-2.6326 -0.12849,-0.1419 -0.22759,1.03501 -0.22759,2.70267 0,2.64977 -0.0527,2.98224 -0.51178,3.22792 -0.62529,0.33465 -0.81423,0.33305 -1.40645,-0.0119 z m 11.09198,-0.045 c -0.40861,-0.29878 -0.44551,-0.94531 -0.3813,-6.68072 l 0.0711,-6.34994 h 3.04271 3.04271 v 1.05833 1.05834 l -1.79934,0.0785 -1.79933,0.0785 0.0795,1.37667 0.0795,1.37666 1.32292,0.1323 c 1.2158,0.12158 1.32982,0.1925 1.40818,0.87589 0.1232,1.07444 -0.36491,1.50536 -1.70516,1.50536 h -1.15823 v 1.5875 1.5875 h 1.66688 c 0.94368,0 1.80462,0.13775 1.98437,0.3175 0.5031,0.50309 0.38575,1.74402 -0.19427,2.05444 -0.73563,0.39369 -5.10414,0.34977 -5.66031,-0.0569 z m 7.9375,0 c -0.40861,-0.29878 -0.44551,-0.94531 -0.3813,-6.68072 l 0.0711,-6.34994 1.54475,-0.08 c 0.84961,-0.044 2.19694,0.0554 2.99407,0.22083 1.18152,0.24529 1.54246,0.45404 1.95339,1.12977 1.0254,1.68613 0.91866,4.02355 -0.25235,5.52594 -0.46356,0.59474 -0.45589,0.67842 0.27427,2.99309 0.93309,2.95795 0.93996,3.25253 0.0809,3.46813 -1.32408,0.33232 -1.79603,-0.17654 -2.57393,-2.77521 -0.48864,-1.63237 -0.84924,-2.41271 -1.11492,-2.41271 -0.31798,0 -0.39268,0.45119 -0.39268,2.37194 0,2.07428 -0.0642,2.40632 -0.51177,2.64584 -0.67512,0.36131 -1.14106,0.34563 -1.69156,-0.0569 z m 3.3906,-7.60543 c 0.64206,-0.2441 0.68672,-0.36468 0.61254,-1.65364 -0.078,-1.35601 -0.10125,-1.39239 -0.93991,-1.47325 l -0.8599,-0.0829 v 1.56017 c 0,1.34049 0.12681,1.91294 0.42375,1.91294 0.039,0 0.38262,-0.11849 0.76352,-0.26331 z m 5.86981,7.60543 c -0.40861,-0.29878 -0.4455,-0.94531 -0.3813,-6.68072 l 0.0711,-6.34994 h 1.19062 1.19063 l 0.0711,6.34994 c 0.0642,5.73541 0.0273,6.38194 -0.3813,6.68072 -0.24882,0.18194 -0.645,0.3308 -0.88042,0.3308 -0.23541,0 -0.6316,-0.14886 -0.88042,-0.3308 z m 5.95992,-0.1118 c -1.47803,-0.72841 -1.63992,-1.36975 -1.63992,-6.49685 0,-3.72612 0.0773,-4.69486 0.41294,-5.17402 0.92617,-1.3223 3.10945,-1.76088 4.94592,-0.99355 0.67872,0.28358 1.04016,0.67311 1.35523,1.46056 0.80021,1.99993 0.46453,2.91521 -1.06915,2.91521 -0.94713,0 -1.4116,-0.5529 -1.4116,-1.68035 0,-0.74625 -0.44456,-1.00553 -1.12448,-0.65584 -0.40948,0.2106 -0.46302,0.69225 -0.46302,4.16519 0,3.15298 0.0776,3.99141 0.3935,4.25362 0.56214,0.46653 1.194,0.13148 1.194,-0.63313 0,-0.3589 0.11611,-0.95795 0.25803,-1.33122 0.20557,-0.5407 0.43689,-0.67869 1.13771,-0.67869 1.11265,0 1.51467,0.40255 1.51467,1.51663 0,2.94037 -2.82664,4.65184 -5.50383,3.33244 z m 6.8929,0.27719 c -0.49397,-0.21398 -0.41953,-1.02677 0.61305,-6.69361 1.23378,-6.77104 1.17707,-6.63473 2.76009,-6.63473 0.6996,0 1.38321,0.15037 1.53945,0.33862 0.25214,0.30382 2.42959,11.45641 2.42959,12.44404 0,0.52946 -1.39674,0.8318 -2.10114,0.45481 -0.29958,-0.16033 -0.54631,-0.55521 -0.5483,-0.87751 -0.009,-1.44731 -0.27767,-1.80886 -1.28176,-1.7244 -0.90076,0.0758 -0.96234,0.14232 -1.14857,1.24108 -0.10823,0.63856 -0.23862,1.20287 -0.28977,1.25402 -0.18944,0.18944 -1.65308,0.33611 -1.97264,0.19768 z m 3.87623,-6.11844 c -0.0145,-0.40019 -0.11718,-1.02526 -0.22817,-1.38907 -0.23337,-0.76498 -0.4138,-0.44411 -0.63231,1.12448 -0.11877,0.85263 -0.0661,0.99219 0.37432,0.99219 0.38913,0 0.50618,-0.17518 0.48616,-0.7276 z m 4.67548,5.86808 c -0.35277,-0.35278 -0.41578,-1.29759 -0.41578,-6.23511 0,-3.50543 0.10891,-6.02282 0.2739,-6.3311 0.18934,-0.35379 0.555,-0.51177 1.18452,-0.51177 1.10256,0 1.38728,0.38718 2.39354,3.25488 0.39838,1.13534 0.8207,1.96788 0.93849,1.85009 0.11779,-0.11779 0.24899,-1.28483 0.29155,-2.59342 l 0.0774,-2.37926 0.8983,-0.0858 c 0.54024,-0.0516 0.98683,0.0539 1.12042,0.26458 0.12218,0.1927 0.22396,3.11437 0.22619,6.49261 0.004,5.85243 -0.0207,6.15548 -0.51969,6.42255 -0.28805,0.15416 -0.81973,0.20601 -1.18149,0.11521 -0.66369,-0.16658 -0.73349,-0.30526 -2.18719,-4.34564 -0.71999,-2.00112 -0.87008,-1.80647 -0.87008,1.1284 0,2.51898 -0.0549,2.85112 -0.51177,3.09563 -0.71783,0.38416 -1.23494,0.34147 -1.71829,-0.14188 z m 11.55662,0.25036 c -0.49002,-0.21227 -0.42218,-0.95768 0.60694,-6.66918 1.21884,-6.76439 1.17513,-6.65916 2.7662,-6.65916 0.69213,0 1.38103,0.14883 1.53088,0.33073 0.24889,0.30211 2.43817,11.47198 2.43817,12.43972 0,0.54148 -1.38629,0.8496 -2.10115,0.46702 -0.29958,-0.16033 -0.54631,-0.55521 -0.5483,-0.87751 -0.009,-1.44731 -0.27766,-1.80886 -1.28176,-1.7244 -0.90075,0.0758 -0.96234,0.14232 -1.14856,1.24108 -0.10823,0.63856 -0.23863,1.20287 -0.28978,1.25402 -0.18944,0.18944 -1.65308,0.33611 -1.97264,0.19768 z m 3.87623,-6.11844 c -0.0145,-0.40019 -0.11718,-1.02526 -0.22816,-1.38907 -0.23338,-0.76498 -0.41381,-0.44411 -0.63232,1.12448 -0.11877,0.85263 -0.0661,0.99219 0.37432,0.99219 0.38913,0 0.50618,-0.17518 0.48616,-0.7276 z m 5.95842,5.78499 c -1.33818,-0.81602 -1.56642,-1.76498 -1.56642,-6.5126 0,-3.01069 0.1004,-4.40935 0.34761,-4.8428 0.82113,-1.43967 3.04139,-2.02689 4.994,-1.32082 0.62183,0.22485 1.03628,0.6389 1.40784,1.40645 0.94896,1.96028 0.6042,3.03738 -0.97223,3.03738 -0.9008,0 -1.41159,-0.549 -1.41159,-1.51719 0,-0.75367 -0.51991,-1.15222 -1.09887,-0.84237 -0.44143,0.23625 -0.48863,0.64089 -0.48863,4.18856 0,3.15298 0.0776,3.99141 0.3935,4.25362 0.61384,0.50944 1.194,0.1207 1.194,-0.80004 0,-1.28735 0.42558,-1.843 1.41159,-1.843 1.09703,0 1.49882,0.40657 1.49882,1.51663 0,1.33516 -0.66181,2.64409 -1.63772,3.23909 -1.12343,0.68493 -2.98176,0.70186 -4.0719,0.0371 z m 6.95958,0.12352 c -0.32406,-0.32406 -0.23536,-1.14637 0.64931,-6.01927 1.31252,-7.22956 1.25993,-7.09914 2.86294,-7.09914 0.69212,0 1.38028,0.14883 1.52922,0.33073 0.14895,0.1819 0.77267,3.06065 1.38605,6.39722 1.06537,5.79519 1.09385,6.08213 0.63706,6.41615 -0.90278,0.66013 -2.2267,0.19517 -2.23273,-0.78414 -0.009,-1.44846 -0.27741,-1.80886 -1.28458,-1.7244 -0.88674,0.0744 -0.9665,0.15378 -1.12172,1.11679 -0.24636,1.52845 -1.53653,2.25508 -2.42555,1.36606 z m 4.01534,-5.90851 c -0.0145,-0.40019 -0.11718,-1.02526 -0.22817,-1.38907 -0.2307,-0.75623 -0.39728,-0.47365 -0.66288,1.12448 -0.14573,0.87688 -0.102,0.99219 0.37626,0.99219 0.42036,0 0.53527,-0.16242 0.51479,-0.7276 z m 4.70964,5.90225 c -0.39733,-0.39734 -0.44946,-1.15148 -0.44589,-6.45032 0.002,-3.3002 0.10821,-6.16482 0.23551,-6.36581 0.17715,-0.27971 0.7503,-0.3377 2.44334,-0.2472 4.23269,0.22626 4.72461,0.90988 4.72461,6.56576 0,4.19765 -0.25163,5.15757 -1.61353,6.15508 -1.00486,0.73601 -4.71287,0.97365 -5.34404,0.34249 z m 3.7834,-2.52882 c 0.47301,-0.47301 0.52916,-0.88194 0.52916,-3.85385 0,-3.62003 -0.20095,-4.34823 -1.19993,-4.34823 h -0.65215 v 4.18924 c 0,4.81455 0.12923,5.20653 1.32292,4.01284 z m 5.22552,2.62464 c -0.41962,-0.2444 -0.46302,-0.83693 -0.46302,-6.32031 0,-3.32785 0.0723,-6.23896 0.1606,-6.46915 0.13341,-0.34768 0.66989,-0.41851 3.16995,-0.41851 h 3.00937 l 0.17629,0.70241 c 0.29256,1.16565 -0.16316,1.53736 -1.99304,1.62567 l -1.63951,0.0791 0.0795,1.37609 0.0795,1.37609 1.19063,0.1323 1.19062,0.13229 v 1.05833 1.05833 l -1.25677,0.0806 -1.25677,0.0806 v 1.573 1.57301 h 1.5686 c 1.66754,0 2.40015,0.4038 2.40015,1.32291 0,1.05793 -0.68485,1.32338 -3.39233,1.31487 -1.40844,-0.004 -2.76915,-0.1294 -3.02381,-0.27773 z m 7.91698,-0.045 c -0.40861,-0.29878 -0.44551,-0.94531 -0.3813,-6.68072 l 0.0711,-6.34994 1.48424,-0.0782 c 1.73765,-0.0916 1.74715,-0.0781 2.5042,3.57688 0.24786,1.19665 0.53351,2.12452 0.63476,2.06194 0.10125,-0.0626 0.39946,-1.16071 0.66269,-2.4403 0.66543,-3.23476 0.67839,-3.25257 2.36802,-3.25257 1.04859,0 1.4594,0.10894 1.5782,0.41851 0.0883,0.23019 0.1606,3.14303 0.1606,6.47299 0,5.76276 -0.0252,6.06797 -0.52374,6.33476 -0.28806,0.15416 -0.82384,0.20498 -1.19063,0.11292 -0.66173,-0.16608 -0.66688,-0.18967 -0.66688,-3.04911 0,-1.58496 -0.10429,-2.88174 -0.23176,-2.88174 -0.12747,0 -0.44175,1.10133 -0.69839,2.4474 -0.56465,2.96151 -0.75696,3.37344 -1.57488,3.37344 -0.72358,0 -0.73354,-0.0243 -1.35426,-3.3073 -0.669,-3.53837 -0.88613,-3.55667 -0.89517,-0.0754 -0.007,2.789 -0.0593,3.12699 -0.51982,3.37344 -0.66092,0.35372 -0.87721,0.34509 -1.42697,-0.0569 z m 12.79106,0.0745 c -0.29416,-0.18599 -0.43278,-1.03009 -0.55334,-3.36939 -0.14352,-2.78508 -0.27934,-3.44414 -1.26116,-6.11977 -0.60517,-1.6492 -1.10031,-3.16725 -1.10031,-3.37344 0,-0.26647 0.33558,-0.37488 1.16047,-0.37488 1.2587,0 1.49303,0.28015 2.26838,2.71198 0.174,0.5457 0.41204,0.99219 0.52901,0.99219 0.11695,0 0.35361,-0.56555 0.52588,-1.25677 0.49026,-1.96702 0.9097,-2.4474 2.13694,-2.4474 0.82614,0 1.05223,0.0996 1.05223,0.46348 0,0.25492 -0.53358,1.95156 -1.18574,3.77031 -1.10869,3.09196 -1.18605,3.48245 -1.19062,6.0095 -0.004,2.39842 -0.0625,2.73351 -0.51666,2.97657 -0.63176,0.3381 -1.34754,0.34487 -1.86508,0.0176 z"
         id="path4508"
         inkscape:connector-curvature="0" />
      <path
         style="fill:#919191;stroke-width:0.26458335"
         d="m 123.64776,259.37365 c -0.0744,-0.19377 -0.10316,-3.14781 -0.064,-6.56454 l 0.0712,-6.21223 h 1.05833 1.05833 v 6.48229 6.48229 l -0.99431,0.0822 c -0.64658,0.0535 -1.04159,-0.041 -1.12951,-0.27005 z m 4.76281,7.9e-4 c -0.0745,-0.1942 -0.10347,-3.1486 -0.0643,-6.56533 l 0.0712,-6.21223 h 1.05638 1.05639 l 0.96512,2.63616 c 0.53081,1.44989 1.09298,2.67878 1.24925,2.73087 0.18711,0.0624 0.30995,-0.83784 0.35974,-2.63616 l 0.0756,-2.73087 h 0.92604 0.92604 v 6.48229 6.48229 l -0.81629,0.0797 c -0.44895,0.0438 -0.93988,-0.0752 -1.09094,-0.26458 -0.15106,-0.18934 -0.7227,-1.62417 -1.2703,-3.18852 -0.54761,-1.56435 -1.0947,-2.84427 -1.21577,-2.84427 -0.12106,0 -0.25366,1.39899 -0.29466,3.10886 l -0.0745,3.10885 -0.86172,0.0831 c -0.53847,0.0519 -0.91254,-0.0494 -0.99721,-0.27006 z m 12.10688,-6.21368 0.0708,-6.56388 2.03313,-0.077 c 3.69633,-0.13993 4.85386,0.90304 4.66726,4.20532 -0.0805,1.42489 -0.22816,1.93366 -0.71003,2.44659 l -0.60839,0.64759 0.81475,2.54346 c 1.07607,3.35928 1.07411,3.38006 -0.30974,3.27994 l -1.12448,-0.0814 -0.61139,-1.98437 c -0.855,-2.77507 -1.04269,-3.175 -1.49002,-3.175 -0.31552,0 -0.4079,0.50841 -0.4687,2.57968 l -0.0757,2.57969 -1.12914,0.0816 -1.12913,0.0816 z m 3.95257,-1.31322 c 0.60633,-0.54872 0.64746,-2.27113 0.0681,-2.85051 -0.22868,-0.22868 -0.70493,-0.41578 -1.05833,-0.41578 -0.61272,0 -0.64256,0.0778 -0.64256,1.6757 0,0.92163 0.0794,1.75507 0.17639,1.85208 0.30768,0.30768 0.95614,0.19126 1.45642,-0.26149 z m 6.27767,7.24174 c -0.51368,-0.34538 -1.03438,-0.99748 -1.21482,-1.52136 -0.33561,-0.9744 -0.45443,-6.83796 -0.17308,-8.54068 0.48207,-2.91735 4.69175,-3.75501 6.36618,-1.26676 0.56913,0.84574 0.60499,1.15625 0.60499,5.23866 0,4.80591 -0.19341,5.57682 -1.57884,6.29326 -1.16464,0.60226 -2.94059,0.51217 -4.00443,-0.20312 z m 2.92813,-2.02397 c 0.15064,-0.28147 0.27389,-2.10418 0.27389,-4.05047 0,-3.88096 -0.20453,-4.55252 -1.33774,-4.39257 l -0.64664,0.0913 -0.0732,4.06543 c -0.0499,2.77297 0.0235,4.1819 0.23084,4.43177 0.43646,0.52591 1.2335,0.45127 1.55285,-0.14543 z m 4.63267,2.30914 c -0.0745,-0.19421 -0.10347,-3.14861 -0.0643,-6.56534 l 0.0712,-6.21223 1.29369,-0.0822 c 0.71152,-0.0452 1.38956,0.0144 1.50674,0.13229 0.11719,0.11794 0.4683,1.40507 0.78025,2.86027 0.31195,1.45521 0.66705,2.75028 0.7891,2.87793 0.24098,0.25204 0.57428,-0.84536 1.075,-3.53938 0.42077,-2.26389 0.57119,-2.42268 2.20464,-2.32746 l 1.34642,0.0785 v 6.48229 6.48229 h -0.92605 -0.92604 l -0.0652,-2.91042 c -0.0634,-2.82705 -0.23463,-4.28624 -0.47483,-4.04604 -0.0646,0.0646 -0.41789,1.59264 -0.7851,3.39566 -0.36721,1.80302 -0.78809,3.39865 -0.9353,3.54585 -0.65473,0.65474 -1.16527,-0.30344 -1.76708,-3.31646 -0.3316,-1.66022 -0.69212,-3.19718 -0.80114,-3.41546 -0.10903,-0.21828 -0.2578,1.21047 -0.3306,3.175 l -0.13237,3.57187 -0.86172,0.0831 c -0.53848,0.0519 -0.91254,-0.0494 -0.99721,-0.27006 z m 11.10936,-0.008 c -0.0728,-0.1897 -0.10033,-3.14042 -0.0612,-6.55715 l 0.0712,-6.21224 h 2.91042 2.91042 v 0.92604 0.92604 l -1.7198,0.13229 -1.71979,0.13229 v 1.45521 1.45521 l 1.32292,0.13229 c 1.31032,0.13103 1.32292,0.14111 1.32292,1.05834 0,0.91722 -0.0126,0.9273 -1.32292,1.05833 l -1.32292,0.13229 -0.0786,1.64549 c -0.0889,1.8628 -0.0975,1.85589 2.45981,1.98954 1.32235,0.0691 1.32292,0.0695 1.32292,0.99518 v 0.92604 l -2.98152,0.0749 c -2.26134,0.0568 -3.0135,-0.008 -3.11388,-0.27006 z m -3.27253,-17.74526 c -1.77637,-0.62243 -1.9988,-1.27314 -2.09268,-6.12195 -0.098,-5.06386 0.13632,-6.00508 1.65301,-6.63879 2.76153,-1.15384 5.17739,0.27135 5.17739,3.05431 v 1.08668 l -1.12448,-0.0814 c -1.03123,-0.0746 -1.1319,-0.14718 -1.21404,-0.87511 -0.11066,-0.98082 -0.48229,-1.4552 -1.14001,-1.4552 -0.77861,0 -1.01939,1.0624 -1.01939,4.49791 0,3.6514 0.2219,4.49792 1.17904,4.49792 0.67245,0 0.81897,-0.2725 0.99585,-1.85208 0.0644,-0.57493 0.22117,-0.6721 1.19855,-0.74282 l 1.12448,-0.0814 v 1.43474 c 0,1.66852 -0.6238,2.67446 -2.0203,3.25796 -1.04107,0.43498 -1.521,0.43836 -2.71742,0.0192 z m 37.02605,0 c -0.52388,-0.18044 -1.17597,-0.70114 -1.52135,-1.21482 -0.56648,-0.84251 -0.60448,-1.16322 -0.60448,-5.10173 0,-4.73036 0.24446,-5.74015 1.55352,-6.41709 0.4408,-0.22795 1.28953,-0.41445 1.88607,-0.41445 2.14406,0 3.43958,1.29057 3.43958,3.42644 v 1.07148 h -1.06664 c -0.63005,0 -1.10261,-0.13537 -1.15452,-0.33073 -0.39323,-1.47989 -0.63117,-1.92527 -1.07411,-2.01058 -0.97583,-0.18792 -1.20265,0.64072 -1.20265,4.39365 0,1.94628 0.12325,3.76899 0.27389,4.05047 0.15618,0.29182 0.55202,0.51177 0.921,0.51177 0.65479,0 0.80422,-0.28242 0.98,-1.85208 0.0644,-0.57493 0.22117,-0.6721 1.19855,-0.74282 l 1.12448,-0.0814 v 1.43474 c 0,1.66852 -0.6238,2.67446 -2.0203,3.25796 -1.04088,0.4349 -1.51627,0.43823 -2.73304,0.0192 z m -80.70567,-0.11736 c 0.004,-0.61354 2.02104,-11.78789 2.26762,-12.56481 0.11454,-0.36088 0.43859,-0.46592 1.43735,-0.46592 0.70921,0 1.3645,0.1214 1.45621,0.26978 0.23936,0.38729 2.24574,11.28288 2.24574,12.19543 0,0.69523 -0.0825,0.76396 -0.91673,0.76396 -1.0003,0 -1.46452,-0.52936 -1.46452,-1.67 0,-0.84223 -0.5772,-1.29982 -1.50535,-1.19339 -0.62965,0.0722 -0.7788,0.24744 -0.9733,1.14359 -0.12633,0.58209 -0.27142,1.20717 -0.32242,1.38907 -0.0988,0.35248 -2.22706,0.47904 -2.2246,0.13229 z m 4.31019,-5.75496 c -0.19342,-2.84056 -0.73196,-3.13642 -1.03384,-0.56794 -0.17825,1.51663 -0.17098,1.53989 0.45336,1.45138 0.52369,-0.0742 0.62507,-0.22853 0.58048,-0.88344 z m 4.31567,5.53488 c -0.20949,-0.54591 -0.20949,-11.84623 0,-12.39214 0.19881,-0.5181 2.54866,-0.588 2.95109,-0.0878 0.14634,0.1819 0.53507,1.6175 0.86384,3.19022 0.32878,1.57272 0.69711,2.76016 0.8185,2.63877 0.1214,-0.1214 0.45334,-1.34864 0.73765,-2.7272 0.73896,-3.58306 0.63781,-3.43252 2.30645,-3.43252 h 1.43153 l -0.0708,6.54844 -0.0708,6.54843 h -0.92604 -0.92604 l -0.13276,-3.43958 c -0.073,-1.89177 -0.21278,-3.26099 -0.31057,-3.04271 -0.0978,0.21828 -0.37462,1.34938 -0.61517,2.51354 -0.81167,3.92823 -0.89294,4.1429 -1.53359,4.05138 -0.51565,-0.0737 -0.65662,-0.45255 -1.2987,-3.49059 -0.39615,-1.87438 -0.78411,-3.4718 -0.86214,-3.54982 -0.078,-0.078 -0.14186,1.29699 -0.14186,3.05559 0,1.7586 -0.0723,3.38579 -0.1606,3.61597 -0.10136,0.26414 -0.4813,0.41852 -1.03003,0.41852 -0.54873,0 -0.92866,-0.15438 -1.03002,-0.41852 z m 11.1125,0 c -0.20949,-0.54591 -0.20949,-11.84623 0,-12.39214 0.13282,-0.34612 0.65823,-0.41851 3.03766,-0.41851 2.84753,0 2.87878,0.007 3.04294,0.66087 0.29561,1.17779 0.003,1.42358 -1.79615,1.50897 l -1.66693,0.0791 -0.0789,1.50633 -0.0789,1.50634 1.26953,0.0812 c 1.25549,0.0803 1.27042,0.092 1.35074,1.05824 l 0.0812,0.97708 -1.27185,0.0813 -1.27184,0.0813 v 1.7198 1.71979 l 1.77184,0.0779 c 1.89465,0.0833 2.31393,0.43957 1.93233,1.64188 -0.15493,0.48813 -0.40032,0.52917 -3.16452,0.52917 -2.48841,0 -3.02381,-0.071 -3.15717,-0.41852 z m 7.9375,0 c -0.20949,-0.54591 -0.20949,-11.84623 0,-12.39214 0.35043,-0.91322 5.09256,-0.3127 6.18901,0.78375 0.59432,0.59433 0.66185,0.87501 0.66185,2.75119 0,1.85374 -0.0732,2.16723 -0.64896,2.78011 l -0.64895,0.69078 0.86406,2.63612 c 0.47523,1.44987 0.79,2.75596 0.69948,2.90242 -0.2321,0.37554 -1.9105,0.33211 -2.16825,-0.0561 -0.11773,-0.17732 -0.51624,-1.33742 -0.88558,-2.578 -0.46893,-1.57509 -0.80819,-2.28192 -1.12448,-2.34283 -0.39883,-0.0768 -0.45295,0.18121 -0.45295,2.15949 0,1.23569 -0.0723,2.43505 -0.1606,2.66523 -0.22141,0.577 -2.10322,0.577 -2.32463,0 z m 4.19002,-7.57785 c 0.83733,-1.19546 0.17097,-3.23231 -1.00273,-3.06504 -0.50972,0.0726 -0.57801,0.26942 -0.648,1.86714 -0.0765,1.74745 -0.064,1.78593 0.58031,1.78593 0.38058,0 0.83239,-0.2482 1.07042,-0.58803 z m 5.07039,7.57785 c -0.20948,-0.54591 -0.20948,-11.84623 0,-12.39214 0.22142,-0.57699 2.10322,-0.57699 2.32464,0 0.20948,0.54591 0.20948,11.84623 0,12.39214 -0.22142,0.577 -2.10322,0.577 -2.32464,0 z m 12.94467,0.16751 c -0.21536,-0.34845 1.94476,-12.19343 2.30646,-12.64743 0.33228,-0.41709 2.48415,-0.43519 2.73887,-0.023 0.2901,0.46938 2.42161,12.21328 2.28521,12.59075 -0.14108,0.39044 -1.81139,0.44779 -2.04475,0.0702 -0.0886,-0.14329 -0.24771,-0.76837 -0.35367,-1.38907 -0.18884,-1.1062 -0.21342,-1.12854 -1.2418,-1.12854 -1.04535,0 -1.05015,0.005 -1.32832,1.32292 -0.26756,1.26781 -0.31896,1.32627 -1.23406,1.40357 -0.52519,0.0444 -1.03276,-0.0454 -1.12794,-0.19937 z m 4.15462,-5.97606 c -0.17106,-2.55171 -0.66672,-2.88581 -0.9634,-0.64938 -0.19764,1.48993 -0.0538,1.92202 0.59537,1.78851 0.33448,-0.0688 0.42169,-0.33872 0.36803,-1.13913 z m 4.56139,5.90776 c -0.0745,-0.1942 -0.10347,-3.14861 -0.0643,-6.56533 l 0.0712,-6.21224 h 1.05833 1.05834 l 0.86666,2.24896 c 1.52769,3.96432 1.4973,3.95211 1.64688,0.66146 l 0.13229,-2.91042 0.8983,-0.0858 c 0.54024,-0.0516 0.98683,0.0539 1.12042,0.26458 0.25226,0.39787 0.3161,11.85729 0.0696,12.49955 -0.10245,0.26698 -0.48319,0.41852 -1.05154,0.41852 -1.04172,0 -1.24911,-0.31825 -2.32775,-3.57188 -0.65112,-1.96405 -1.16071,-3.09357 -1.25337,-2.77812 -0.0214,0.0728 -0.11249,1.50151 -0.20249,3.175 l -0.16363,3.0427 -0.86171,0.083 c -0.53848,0.0519 -0.91254,-0.0494 -0.99722,-0.27006 z m 11.37667,-0.001 c -0.1173,-0.30568 1.7612,-11.18179 2.1496,-12.44576 0.11006,-0.35817 0.43428,-0.46302 1.43175,-0.46302 0.70921,0 1.37456,0.13767 1.47855,0.30593 0.29372,0.47526 2.41598,12.21825 2.27831,12.60647 -0.0776,0.21883 -0.47048,0.31544 -1.07594,0.26459 -0.9918,-0.0833 -1.10597,-0.24758 -1.49167,-2.14608 -0.13691,-0.67387 -0.24245,-0.73545 -1.13379,-0.66145 -0.94879,0.0788 -0.99245,0.1274 -1.26059,1.4045 -0.26801,1.27651 -0.31219,1.3258 -1.25934,1.40516 -0.63641,0.0533 -1.02916,-0.0417 -1.11688,-0.27035 z m 4.18657,-5.63301 c -0.19341,-2.84056 -0.73196,-3.13642 -1.03383,-0.56794 -0.17825,1.51663 -0.17099,1.53989 0.45335,1.45138 0.5237,-0.0742 0.62507,-0.22853 0.58048,-0.88344 z m 12.73225,5.59518 c -0.11964,-0.31177 1.77001,-11.16086 2.16117,-12.40793 0.11221,-0.35777 0.43834,-0.46302 1.4347,-0.46302 0.70921,0 1.3645,0.1214 1.4562,0.26978 0.23936,0.38729 2.24575,11.28288 2.24575,12.19543 0,0.69523 -0.0825,0.76396 -0.91673,0.76396 -1.0003,0 -1.46452,-0.52936 -1.46452,-1.67 0,-0.84223 -0.57721,-1.29982 -1.50536,-1.19339 -0.62965,0.0722 -0.7788,0.24744 -0.97329,1.14359 -0.12633,0.58209 -0.27142,1.20717 -0.32243,1.38907 -0.12665,0.45172 -1.94064,0.42815 -2.11549,-0.0275 z m 4.20108,-5.59518 c -0.19341,-2.84056 -0.73196,-3.13642 -1.03383,-0.56794 -0.17825,1.51663 -0.17099,1.53989 0.45335,1.45138 0.5237,-0.0742 0.62508,-0.22853 0.58048,-0.88344 z m 4.53862,5.61719 c -0.071,-0.18491 -0.097,-3.13171 -0.0578,-6.54843 l 0.0712,-6.21224 2.32239,0.0405 c 2.5167,0.0439 3.25747,0.33458 4.09007,1.6051 0.39532,0.60324 0.4667,1.34119 0.4667,4.82496 0,4.69047 -0.26601,5.5838 -1.86115,6.25029 -1.15741,0.4836 -4.84984,0.51283 -5.03134,0.0398 z m 4.06145,-2.09796 c 0.21719,-0.21719 0.3175,-1.50687 0.3175,-4.08214 0,-4.05834 -0.2063,-4.71757 -1.42204,-4.54413 -0.54198,0.0773 -0.56499,0.22824 -0.63567,4.17016 -0.0403,2.24946 -0.0143,4.24376 0.0579,4.43177 0.16509,0.43023 1.26063,0.44607 1.68236,0.0243 z m 4.93773,2.10668 c -0.0728,-0.18971 -0.10033,-3.14043 -0.0612,-6.55715 l 0.0712,-6.21224 h 2.91042 2.91041 l 0.0821,0.99219 0.0821,0.99219 -1.53733,0.004 c -2.05054,0.005 -2.24872,0.166 -2.14879,1.74134 l 0.0823,1.29731 1.32292,0.1323 c 1.31031,0.13103 1.32291,0.14111 1.32291,1.05833 0,0.83642 -0.0768,0.93306 -0.79375,0.99859 -2.01792,0.18444 -2.01671,0.1832 -1.93064,1.98613 l 0.0786,1.64549 1.85208,0.13229 1.85209,0.13229 v 0.92604 0.92604 l -2.98153,0.0749 c -2.26133,0.0568 -3.01349,-0.008 -3.11387,-0.27005 z m 7.71121,-0.091 c -0.20949,-0.54591 -0.20949,-11.84623 0,-12.39214 0.19882,-0.51813 2.54705,-0.5879 2.95438,-0.0878 0.14815,0.1819 0.5048,1.49632 0.79256,2.92092 0.75978,3.7615 0.88302,3.77436 1.62643,0.16976 0.73637,-3.57046 0.63599,-3.42141 2.30416,-3.42141 h 1.43153 l -0.0708,6.54844 -0.0708,6.54843 h -0.92604 -0.92604 l -0.13229,-3.57187 c -0.12116,-3.27133 -0.15842,-3.48282 -0.4428,-2.51354 -0.17078,0.58208 -0.44777,1.77271 -0.61554,2.64583 -0.62145,3.23425 -0.77203,3.6121 -1.4037,3.52221 -0.50987,-0.0726 -0.65326,-0.42136 -1.17597,-2.86075 -0.99371,-4.63746 -1.06755,-4.71457 -1.09748,-1.14612 -0.0149,1.77073 -0.0993,3.40784 -0.18761,3.63802 -0.10136,0.26414 -0.4813,0.41852 -1.03003,0.41852 -0.54873,0 -0.92867,-0.15438 -1.03002,-0.41852 z m 12.99296,0.25472 c -0.10394,-0.10394 -0.18898,-1.34459 -0.18898,-2.75699 0,-2.36811 -0.0912,-2.82295 -1.1718,-5.84288 -1.56338,-4.36927 -1.55855,-4.31503 -0.39305,-4.41273 1.15753,-0.097 1.41662,0.18374 2.03063,2.20056 0.25822,0.84816 0.59639,1.58441 0.75149,1.63611 0.1551,0.0517 0.50134,-0.65345 0.76943,-1.56699 0.26809,-0.91355 0.60018,-1.80982 0.73797,-1.99172 0.33308,-0.43969 2.30375,-0.43969 2.29835,0 -0.002,0.1819 -0.55836,1.81901 -1.23584,3.63802 -1.10574,2.96889 -1.24745,3.60508 -1.385,6.21771 l -0.15322,2.91041 -0.9355,0.0787 c -0.51452,0.0433 -1.02054,-0.006 -1.12448,-0.11024 z"
         id="path4506"
         inkscape:connector-curvature="0" />
      <path
         style="fill:#6f6f6f;stroke-width:0.26458335"
         d="m 150.88591,259.21061 c -1.32272,-0.83211 -1.47934,-1.58039 -1.38582,-6.62088 0.0835,-4.49971 0.0882,-4.53125 0.78804,-5.23036 0.94004,-0.93911 3.07944,-1.18614 4.34943,-0.5022 1.35944,0.73211 1.69365,1.92302 1.69192,6.02892 -0.002,3.94022 -0.23385,5.11646 -1.18671,6.01162 -0.92077,0.86503 -3.122,1.02682 -4.25686,0.3129 z m 2.7463,-1.95102 c 0.2182,-0.21821 0.3175,-1.53627 0.3175,-4.21444 0,-3.18989 -0.0754,-3.97237 -0.41578,-4.31271 -0.57485,-0.57485 -1.06864,-0.5201 -1.5536,0.17227 -0.32282,0.46089 -0.41187,1.35137 -0.41187,4.11843 0,1.94172 0.12325,3.7607 0.27389,4.04217 0.30616,0.57206 1.30379,0.68035 1.78986,0.19428 z m -30.10959,-3.99521 c 0,-6.47258 0.0573,-6.79979 1.19063,-6.79979 1.13333,0 1.19062,0.32721 1.19062,6.79979 v 6.16479 h -1.19062 -1.19063 z m 4.7625,-0.18017 v -6.34496 l 0.70241,-0.17629 c 0.38633,-0.097 0.88514,-0.061 1.10846,0.0798 0.22333,0.14087 0.87825,1.52763 1.45538,3.08167 0.57713,1.55405 1.14988,2.82554 1.27279,2.82554 0.1229,0 0.22346,-1.23557 0.22346,-2.74572 0,-3.02265 0.23157,-3.53816 1.45178,-3.23191 l 0.66489,0.16688 v 6.34496 6.34496 h -1.0223 -1.02231 l -1.11952,-3.17494 c -0.61574,-1.74621 -1.22727,-3.24152 -1.35895,-3.3229 -0.13798,-0.0853 -0.23942,1.25987 -0.23942,3.17493 v 3.32291 h -1.05833 -1.05834 z m 12.17084,0 v -6.34496 l 0.68927,-0.17299 c 1.05161,-0.26394 4.06526,0.0968 4.79323,0.57381 1.50648,0.98709 1.83877,4.20349 0.61223,5.92602 l -0.61556,0.86447 0.6896,2.30371 c 0.37929,1.26703 0.76655,2.50422 0.8606,2.7493 0.14457,0.37674 -0.0116,0.4456 -1.01034,0.4456 h -1.18132 l -0.60474,-2.25032 c -0.33261,-1.23767 -0.76625,-2.45806 -0.96365,-2.71198 -0.33942,-0.4366 -0.38045,-0.43378 -0.75578,0.0519 -0.27973,0.36199 -0.39688,1.16251 -0.39688,2.71198 v 2.19839 h -1.05833 -1.05833 z m 4.21627,-1.17511 c 0.17467,-0.21046 0.2764,-0.93837 0.23083,-1.65155 -0.071,-1.11154 -0.1805,-1.32251 -0.85287,-1.64349 -0.69301,-0.33082 -0.80728,-0.31918 -1.12448,0.11463 -0.3625,0.49574 -0.47881,2.39207 -0.19249,3.13822 0.20136,0.52473 1.51482,0.55331 1.93901,0.0422 z m 13.51081,1.35528 c 0,-4.44206 0.0887,-6.25352 0.3175,-6.48229 0.41772,-0.41772 2.19038,-0.40845 2.52961,0.0132 0.14634,0.1819 0.53424,1.6136 0.86202,3.18155 0.84643,4.04905 0.92736,4.02902 1.84672,-0.45708 0.29681,-1.44833 0.68622,-2.72956 0.86534,-2.84716 0.17913,-0.1176 0.80194,-0.18275 1.38402,-0.14478 l 1.05833,0.069 0.0709,6.41614 0.0708,6.41615 h -0.93074 -0.93075 V 255.725 c 0,-5.27113 -0.28788,-5.02791 -1.48752,1.25677 -0.42045,2.20268 -0.5253,2.4474 -1.04864,2.4474 -0.65084,0 -0.59565,0.15765 -1.43597,-4.10104 -0.31585,-1.60073 -0.68243,-3.02353 -0.81462,-3.16177 -0.18877,-0.19743 -0.42957,6.0643 -0.27166,7.06437 0.0172,0.10914 -0.44492,0.19844 -1.02701,0.19844 h -1.05833 z m 11.1125,-0.18017 v -6.34496 l 0.59531,-0.14925 c 0.32743,-0.0821 1.5948,-0.11412 2.81639,-0.0712 1.77199,0.0623 2.27993,0.17169 2.51219,0.54109 0.55094,0.87628 -0.10698,1.38018 -1.9165,1.46783 l -1.62614,0.0788 v 1.56038 1.56038 l 1.25677,0.0806 c 1.24456,0.0799 1.25677,0.0896 1.25677,1.00669 0,0.91828 -0.0106,0.92672 -1.26852,1.00716 l -1.26851,0.0811 0.0779,1.77096 0.0779,1.77096 1.78594,0.0782 c 0.98227,0.043 1.80458,0.16209 1.82735,0.26458 0.0228,0.10249 0.0646,0.51377 0.0928,0.91396 l 0.0514,0.7276 h -3.13556 -3.13555 z m -46.83125,-11.46584 c 0,-0.17461 2.09657,-11.60087 2.25424,-12.28555 0.12086,-0.52481 0.3024,-0.59532 1.53289,-0.59532 h 1.39579 l 1.13666,6.20423 c 0.62516,3.41232 1.05932,6.32935 0.9648,6.48229 -0.19664,0.31816 -1.19229,0.36472 -1.61633,0.0756 -0.15678,-0.10691 -0.39491,-0.73017 -0.52916,-1.38501 -0.23889,-1.16522 -0.26791,-1.19236 -1.35983,-1.27156 -1.0362,-0.0752 -1.12647,-0.028 -1.26652,0.66146 -0.38805,1.91046 -0.49552,2.06179 -1.52517,2.14742 -0.54305,0.0452 -0.98737,0.0301 -0.98737,-0.0335 z m 4.37171,-6.44149 c -0.22034,-1.76359 -0.5145,-2.66773 -0.74604,-2.29309 -0.23664,0.38289 -0.68307,3.35564 -0.53955,3.59278 0.0661,0.10914 0.42446,0.19843 0.79644,0.19843 0.66779,0 0.67397,-0.0189 0.48915,-1.49812 z m 4.69027,6.34998 c -0.25165,-0.10154 -0.33073,-1.64661 -0.33073,-6.46141 v -6.32795 h 1.45017 c 1.28751,0 1.4653,0.0668 1.58507,0.59532 0.0742,0.32742 0.37292,1.71527 0.66381,3.0841 0.76391,3.59475 0.83286,3.58932 1.59419,-0.12571 0.78349,-3.82316 0.61174,-3.55371 2.26522,-3.55371 h 1.43737 v 6.34496 6.34496 l -0.64642,0.16224 c -0.35553,0.0892 -0.77225,0.0845 -0.92604,-0.0106 -0.17231,-0.1065 -0.28117,-1.46146 -0.28367,-3.53064 -0.002,-1.8468 -0.10828,-3.52238 -0.23566,-3.72351 -0.29792,-0.4704 -0.3662,-0.25282 -1.18024,3.76116 -0.34922,1.72198 -0.76876,3.26469 -0.9323,3.42824 -0.49584,0.49584 -0.98869,-0.31299 -1.33661,-2.1935 -0.64319,-3.47646 -1.12308,-5.29235 -1.35993,-5.14596 -0.13358,0.0826 -0.24288,1.73768 -0.24288,3.67806 0,2.97295 -0.0658,3.55321 -0.41851,3.68855 -0.46855,0.1798 -0.62618,0.17771 -1.10284,-0.0146 z m 10.95816,-0.001 c -0.097,-0.097 -0.17639,-3.01404 -0.17639,-6.48228 v -6.30591 h 2.92718 2.92718 l -0.0829,0.8599 c -0.0827,0.85773 -0.0872,0.86023 -1.8027,0.99219 l -1.71979,0.13229 -0.0815,1.27733 c -0.10394,1.6293 0.23518,2.02996 1.71814,2.02996 1.16625,0 1.17437,0.006 1.09208,0.8599 -0.0794,0.82368 -0.13862,0.86546 -1.40582,0.99218 l -1.32292,0.13229 v 1.7198 1.71979 l 1.85208,0.13229 c 1.81003,0.12929 1.85407,0.14967 1.93942,0.89733 0.0496,0.43454 -0.0647,0.86142 -0.26459,0.98814 -0.41539,0.26333 -5.34272,0.31156 -5.59948,0.0548 z m 7.9375,0 c -0.097,-0.097 -0.17639,-3.01404 -0.17639,-6.48228 v -6.30591 h 2.2621 c 3.54347,0 4.48834,0.80475 4.48064,3.81616 -0.003,1.24443 -0.1402,1.80762 -0.59531,2.44675 -0.73477,1.03189 -0.73576,0.99177 0.0917,3.7047 0.74527,2.44337 0.70598,2.99908 -0.2116,2.99292 -0.97176,-0.007 -1.15509,-0.26626 -1.95794,-2.77407 -0.62452,-1.95075 -0.85801,-2.38125 -1.2915,-2.38125 -0.48408,0 -0.53576,0.20215 -0.60646,2.37252 -0.0485,1.48808 -0.19642,2.44824 -0.39687,2.57564 -0.39556,0.2514 -1.36081,0.27243 -1.59841,0.0348 z m 4.00403,-7.54944 c 0.45118,-0.45118 0.40492,-2.72015 -0.0634,-3.1088 -0.20948,-0.17386 -0.7155,-0.27773 -1.12448,-0.23084 -0.70043,0.0803 -0.74831,0.16793 -0.82478,1.50894 -0.0446,0.78302 -0.0186,1.58669 0.0579,1.78594 0.1714,0.44665 1.52197,0.47758 1.95479,0.0448 z m 5.26893,7.56199 c -0.10391,-0.10391 -0.18893,-3.02659 -0.18893,-6.49483 v -6.30591 h 1.06304 1.06303 l -0.0708,6.41615 -0.0709,6.41614 -0.80326,0.0787 c -0.44179,0.0433 -0.88827,-0.006 -0.99218,-0.11024 z m 5.62203,-0.56376 c -1.03967,-0.93164 -1.30176,-2.09613 -1.29521,-5.75469 0.009,-5.26979 0.59461,-6.46824 3.26645,-6.68981 1.38919,-0.1152 1.51463,-0.0736 2.37757,0.78938 0.90666,0.90666 1.43504,2.43786 1.12239,3.25261 -0.0962,0.25067 -0.49832,0.39887 -1.08236,0.39887 -0.95618,0 -1.01784,-0.084 -1.26252,-1.7198 -0.0931,-0.62222 -1.10871,-0.85543 -1.6758,-0.38478 -0.58338,0.48416 -0.55411,7.98041 0.0335,8.56797 0.82349,0.82349 1.6983,0.29694 1.70494,-1.02621 0.006,-1.18716 0.32103,-1.51984 1.34661,-1.42192 0.77673,0.0742 0.91043,0.19256 0.98794,0.87475 0.15175,1.33565 -0.42979,2.75605 -1.36082,3.32373 -1.30023,0.7928 -3.14751,0.69957 -4.16265,-0.2101 z m 7.23035,0.28134 c -0.14443,-0.37636 0.90507,-6.86384 1.8218,-11.26155 l 0.26199,-1.25677 h 1.38876 1.38876 l 1.01185,5.49011 c 1.24787,6.77076 1.27957,7.31134 0.43574,7.43073 -0.81622,0.11549 -1.15746,-0.25614 -1.48617,-1.61846 -0.25372,-1.05155 -0.32874,-1.12079 -1.30065,-1.20037 -1.16612,-0.0955 -1.47196,0.19846 -1.47809,1.4206 -0.002,0.44384 -0.14693,0.94985 -0.32155,1.12448 -0.46596,0.46596 -1.52459,0.38681 -1.72244,-0.12877 z m 4.03869,-6.22719 c -0.20888,-1.84628 -0.54371,-2.73064 -0.77909,-2.05779 -0.26417,0.75516 -0.64128,3.30516 -0.51823,3.50426 0.068,0.10995 0.42956,0.1999 0.80357,0.1999 0.6774,0 0.6793,-0.006 0.49375,-1.64637 z m 4.66875,6.35596 c -0.22878,-0.22878 -0.3175,-2.04023 -0.3175,-6.4823 v -6.16479 h 1.12684 1.12685 l 0.63572,1.78594 c 1.18562,3.33077 1.61474,4.18744 1.88418,3.76143 0.13496,-0.2134 0.24721,-1.54885 0.24944,-2.96768 l 0.004,-2.57969 h 0.92604 0.92604 v 6.34496 6.34496 l -0.68385,0.17164 c -0.98261,0.24662 -1.28119,-0.17476 -2.45253,-3.46121 -0.56781,-1.59309 -1.16597,-2.94106 -1.32925,-2.99549 -0.20842,-0.0695 -0.29687,0.84514 -0.29687,3.06979 0,2.6454 -0.0691,3.19526 -0.41851,3.32934 -0.62811,0.24103 -1.02819,0.19556 -1.38065,-0.1569 z m 11.43188,0.0548 c -0.20419,-0.20419 0.0393,-2.03363 0.85553,-6.42752 0.62753,-3.37814 1.14377,-6.17184 1.14719,-6.20822 0.003,-0.0364 0.63977,-0.0661 1.41411,-0.0661 h 1.40787 l 1.13711,6.1921 c 0.62541,3.40565 1.05641,6.32268 0.95776,6.48229 -0.24425,0.39521 -1.38968,0.36751 -1.65386,-0.04 -0.11773,-0.18161 -0.33818,-0.80669 -0.4899,-1.38907 -0.2609,-1.00152 -0.33566,-1.06325 -1.38031,-1.1398 -1.02389,-0.075 -1.11546,-0.0268 -1.25525,0.66146 -0.35136,1.72981 -0.53873,2.0654 -1.19636,2.14282 -0.36215,0.0426 -0.78689,-0.0509 -0.94389,-0.20792 z m 4.0077,-6.41076 c -0.20888,-1.84628 -0.5437,-2.73064 -0.77909,-2.05779 -0.26417,0.75516 -0.64128,3.30516 -0.51822,3.50426 0.0679,0.10995 0.42955,0.1999 0.80356,0.1999 0.6774,0 0.6793,-0.006 0.49375,-1.64637 z m 5.70221,5.99499 c -1.09198,-0.91884 -1.34801,-2.0463 -1.34801,-5.93612 0,-3.76973 0.24026,-4.93078 1.20859,-5.84048 0.56648,-0.53217 0.95443,-0.64181 2.27106,-0.64181 1.45298,0 1.65228,0.0721 2.34575,0.8482 0.76723,0.85867 1.23611,2.38836 0.9559,3.11856 -0.0962,0.25067 -0.49832,0.39887 -1.08236,0.39887 -0.79815,0 -0.95216,-0.1027 -1.09123,-0.72761 -0.33667,-1.51281 -0.42215,-1.65364 -1.0037,-1.65364 -1.11294,0 -1.22571,0.41694 -1.22571,4.53193 0,3.18989 0.0754,3.97237 0.41578,4.31271 0.82349,0.82349 1.6983,0.29694 1.70494,-1.02621 0.006,-1.18716 0.32103,-1.51984 1.34661,-1.42192 0.77672,0.0742 0.91043,0.19256 0.98794,0.87475 0.15175,1.33565 -0.42979,2.75605 -1.36083,3.32373 -1.2585,0.76737 -3.10722,0.69522 -4.12473,-0.16096 z m 7.19676,0.36111 c -0.2238,-0.28466 0.63483,-5.62606 2.02242,-12.58108 0.007,-0.0364 0.6469,-0.0661 1.42143,-0.0661 h 1.40824 l 1.12789,6.20643 c 0.62034,3.41354 1.05117,6.33057 0.9574,6.48229 -0.19552,0.31636 -1.19222,0.36164 -1.61496,0.0734 -0.15679,-0.10691 -0.39491,-0.73017 -0.52917,-1.38501 -0.23888,-1.16522 -0.2679,-1.19236 -1.35982,-1.27156 -1.03621,-0.0752 -1.12648,-0.028 -1.26652,0.66146 -0.35433,1.74441 -0.53632,2.06512 -1.21714,2.14483 -0.37359,0.0437 -0.80098,-0.0753 -0.94977,-0.26459 z m 4.01658,-6.36337 c -0.19901,-1.7536 -0.47899,-2.5543 -0.7435,-2.12631 -0.23152,0.37461 -0.67373,3.34832 -0.53259,3.58152 0.0661,0.10914 0.42242,0.19843 0.79193,0.19843 0.66773,0 0.67068,-0.0101 0.48416,-1.65364 z m 4.69976,6.38773 c -0.24533,-0.2537 -0.33072,-1.93375 -0.33072,-6.5068 v -6.16479 h 2.26209 c 4.12681,0 4.61707,0.67427 4.61707,6.35 0,4.11115 -0.26444,5.19724 -1.45542,5.97759 -0.91475,0.59938 -4.60503,0.84863 -5.09302,0.344 z m 3.63378,-1.82367 c 0.4829,0 0.79778,-1.82544 0.7941,-4.60354 -0.005,-3.46334 -0.27048,-4.22124 -1.52349,-4.34291 l -0.85386,-0.0829 v 4.49263 c 0,4.56993 0.0813,4.94269 1.01382,4.64806 0.19381,-0.0612 0.45005,-0.11133 0.56943,-0.11133 z m 5.35741,1.80774 c -0.23972,-0.23972 -0.32608,-1.95872 -0.32608,-6.49087 v -6.16479 h 3.05947 3.05947 l -0.0829,0.8599 c -0.0827,0.85773 -0.0872,0.86023 -1.8027,0.99219 l -1.71979,0.13229 -0.0814,1.43017 c -0.0926,1.62667 0.10935,1.86691 1.57445,1.87307 1.02705,0.004 1.42404,0.47232 1.14538,1.35029 -0.11248,0.3544 -0.47309,0.49865 -1.39506,0.55804 l -1.24337,0.0801 -0.0779,1.77358 -0.078,1.77358 1.77012,0.0785 c 1.95795,0.0868 2.62869,0.56456 2.06046,1.46756 -0.23972,0.38097 -0.75608,0.47627 -2.91371,0.53775 -1.81353,0.0517 -2.72293,-0.0258 -2.94843,-0.25136 z m 7.78781,0.13254 c -0.097,-0.097 -0.17639,-3.01405 -0.17639,-6.48229 v -6.30591 h 1.434 1.434 l 0.40528,1.78594 c 0.2229,0.98227 0.48316,2.27554 0.57836,2.87393 0.18379,1.15538 0.52416,1.90044 0.7603,1.6643 0.0785,-0.0785 0.38513,-1.32525 0.6813,-2.77046 0.78349,-3.82316 0.61174,-3.55371 2.26521,-3.55371 h 1.43738 v 6.34496 6.34496 l -0.64642,0.16224 c -0.35553,0.0892 -0.77225,0.0845 -0.92604,-0.0106 -0.17231,-0.1065 -0.28118,-1.46146 -0.28367,-3.53064 -0.002,-1.8468 -0.10828,-3.52238 -0.23566,-3.72351 -0.29802,-0.47055 -0.36605,-0.25353 -1.18243,3.77192 -0.86171,4.24905 -1.63027,4.66405 -2.26672,1.22398 -0.61882,-3.34473 -1.11899,-5.29167 -1.35943,-5.29167 -0.13644,0 -0.24338,1.61521 -0.24338,3.67586 0,3.10783 -0.0647,3.70068 -0.41851,3.83646 -0.5472,0.20998 -1.03757,0.20382 -1.25718,-0.0158 z m 12.84111,-0.14111 c -0.20321,-0.20322 -0.3175,-1.23944 -0.3175,-2.8787 0,-2.36187 -0.0927,-2.8224 -1.19063,-5.91749 -0.65484,-1.84597 -1.19062,-3.46759 -1.19062,-3.6036 0,-0.13601 0.46633,-0.2473 1.03629,-0.2473 h 1.03628 l 0.6339,1.9017 c 0.34864,1.04593 0.76384,1.94501 0.92267,1.99795 0.16142,0.0538 0.55037,-0.78492 0.8819,-1.9017 l 0.59313,-1.99795 h 1.13755 1.13755 l -1.30838,3.71941 c -1.22734,3.48899 -1.30839,3.88062 -1.30839,6.32169 0,2.12887 -0.0761,2.63151 -0.41852,2.76289 -0.65456,0.25118 -1.29857,0.18976 -1.64523,-0.1569 z"
         id="path4504"
         inkscape:connector-curvature="0" />
      <path
         style="fill:#4f4f4f;stroke-width:0.26458335"
         d="m 151.32938,259.35912 c -0.34977,-0.17975 -0.88556,-0.66252 -1.19063,-1.07282 -0.49856,-0.67053 -0.56318,-1.17116 -0.63886,-4.94907 -0.0696,-3.47701 -0.009,-4.36157 0.35118,-5.12054 1.03291,-2.1767 4.71279,-2.30268 5.80086,-0.19859 0.54319,1.05042 0.58838,9.07946 0.0565,10.03795 -0.78838,1.42071 -2.9174,2.05425 -4.37905,1.30307 z m 2.54366,-2.3112 c 0.21515,-0.42679 0.33345,-1.8348 0.33345,-3.96875 0,-3.63145 -0.26041,-4.57224 -1.30691,-4.72148 -1.14609,-0.16345 -1.33112,0.49726 -1.33112,4.75315 0,3.24621 0.072,3.97128 0.42985,4.32914 0.58945,0.58945 1.47309,0.40466 1.87473,-0.39206 z m -30.14282,-3.96854 0.0753,-6.35021 h 0.90772 0.90772 l 0.0753,6.35021 0.0753,6.35021 h -1.05833 -1.05833 z m 4.56508,0.43967 c -0.0146,-3.25057 0.0494,-6.10807 0.14222,-6.35 0.10993,-0.28648 0.47163,-0.43988 1.03715,-0.43988 0.86058,0 0.87719,0.0242 1.85766,2.71198 0.54412,1.49159 1.11183,2.94745 1.26156,3.23524 0.27123,0.5213 0.27302,0.5213 0.47669,0 0.11244,-0.28779 0.2128,-1.74365 0.22303,-3.23524 l 0.0186,-2.71198 h 0.78459 0.78458 l 0.0753,6.35021 0.0753,6.35021 -0.93765,-2.1e-4 -0.93766,-2.1e-4 -0.75385,-2.3151 c -1.82832,-5.61484 -2.3418,-5.82254 -2.21562,-0.89618 l 0.0823,3.21228 -0.97381,-5e-4 -0.97382,-5e-4 z m 12.22201,-0.37373 0.0709,-6.28386 1.71979,-0.0818 c 2.19535,-0.10444 3.20498,0.0885 3.91249,0.74764 1.26844,1.18174 1.336,4.13996 0.12735,5.57636 l -0.64718,0.76913 0.93032,2.7782 0.93031,2.77819 h -1.02778 -1.02779 l -0.82149,-2.66209 c -0.73685,-2.38782 -0.88113,-2.6536 -1.40042,-2.57969 -0.54417,0.0775 -0.58348,0.23729 -0.65466,2.66209 l -0.0757,2.57969 h -1.05354 -1.05354 z m 4.37042,-1.32183 c 0.1819,-0.23813 0.33073,-0.88645 0.33073,-1.44072 0,-1.26019 -0.78095,-2.13389 -1.80197,-2.01598 -0.68685,0.0793 -0.71433,0.1457 -0.79078,1.91057 -0.0555,1.28144 0.0236,1.89563 0.26459,2.05315 0.46903,0.30664 1.59403,0.0211 1.99743,-0.50702 z m 13.50291,1.25589 0.0753,-6.35021 h 1.30871 c 1.14083,0 1.32602,0.0764 1.44363,0.59531 0.0742,0.32742 0.37402,1.72035 0.66626,3.09539 0.53257,2.5058 0.91563,3.361 1.18133,2.6374 0.0757,-0.20624 0.40706,-1.68466 0.73628,-3.28539 l 0.59859,-2.91042 h 1.32292 1.32291 l 0.0709,6.28386 0.0709,6.28385 h -0.93083 c -0.51196,0 -0.91673,-0.0893 -0.8995,-0.19844 0.0172,-0.10914 0.0172,-1.97842 0,-4.15396 -0.0206,-2.59419 -0.12093,-3.86591 -0.29168,-3.69516 -0.1432,0.14319 -0.55861,1.74458 -0.92313,3.55864 -0.92595,4.60802 -0.88846,4.48892 -1.4129,4.48892 -0.38917,0 -0.5722,-0.53263 -1.06833,-3.10885 -1.23869,-6.43214 -1.62696,-6.63363 -1.62696,-0.84428 v 3.95313 l -0.85989,2.1e-4 -0.8599,2.1e-4 z m 10.91508,0.43967 c -0.0146,-3.25057 0.0494,-6.10807 0.14222,-6.35 0.1424,-0.37107 0.59893,-0.43988 2.91862,-0.43988 h 2.74981 v 0.79375 c 0,0.79071 -0.006,0.79375 -1.53458,0.79375 -0.84402,0 -1.67746,0.14287 -1.85208,0.3175 -0.42054,0.42053 -0.40813,2.71749 0.0166,3.06997 0.18374,0.1525 0.80882,0.3159 1.38906,0.36313 0.92602,0.0754 1.05497,0.16671 1.05497,0.74732 0,0.58702 -0.12422,0.6705 -1.10387,0.74181 -1.45595,0.10598 -1.71836,0.48531 -1.62198,2.34472 l 0.08,1.54367 1.85208,0.1323 1.85209,0.13229 0.0829,0.85989 0.0829,0.8599 h -3.0411 -3.0411 z m -46.75391,-12.39921 c 0.23062,-0.92642 1.38917,-6.90003 1.90118,-9.80265 l 0.45504,-2.57969 h 1.36768 c 1.29973,0 1.37095,0.0362 1.4333,0.72761 0.0361,0.40018 0.52407,3.16838 1.08442,6.15156 0.56034,2.98318 0.92784,5.52256 0.81665,5.64308 -0.11119,0.12052 -0.54409,0.18005 -0.962,0.13229 -0.67786,-0.0775 -0.77634,-0.21056 -0.9129,-1.2338 -0.16673,-1.24934 -0.53218,-1.62088 -1.60047,-1.6271 -0.86372,-0.005 -1.18897,0.37466 -1.43119,1.67072 -0.10416,0.55732 -0.32317,1.05339 -0.4867,1.10238 -0.16353,0.049 -0.63913,0.16442 -1.05689,0.25652 -0.69094,0.15232 -0.74588,0.11249 -0.60812,-0.44092 z m 4.35451,-4.51098 c 0.18245,-0.22064 0.19116,-0.81515 0.0262,-1.78594 -0.3937,-2.31657 -0.5004,-2.67648 -0.74805,-2.52342 -0.30716,0.18983 -0.90282,3.75132 -0.711,4.25118 0.18231,0.47509 1.05869,0.51068 1.43287,0.0582 z m 39.0329,4.72038 c -1.45766,-0.65891 -1.67076,-1.45658 -1.67076,-6.25392 0,-4.77679 0.1936,-5.46357 1.74815,-6.20125 2.19489,-1.04154 4.0512,-0.0645 4.61338,2.4281 0.26901,1.19276 -0.0756,1.72931 -1.03781,1.6159 -0.52342,-0.0617 -0.71373,-0.27195 -0.84879,-0.93779 -0.21159,-1.04308 -0.68477,-1.65528 -1.27941,-1.65528 -0.95937,0 -1.07886,0.52745 -1.07886,4.7625 0,4.36384 0.10332,4.7625 1.23424,4.7625 0.70547,0 1.14701,-0.70432 1.14701,-1.82965 0,-0.64622 0.13564,-0.84014 0.68386,-0.97773 1.04956,-0.26343 1.49408,0.34665 1.27066,1.74388 -0.26373,1.64928 -1.26828,2.67441 -2.75685,2.81337 -0.69516,0.0649 -1.52918,-0.0466 -2.02482,-0.27063 z m 37.04167,-0.0144 c -1.46075,-0.63533 -1.67193,-1.43362 -1.66139,-6.28033 0.0102,-4.68142 0.12742,-5.16574 1.46367,-6.04661 2.19251,-1.44531 4.9947,0.17915 4.81674,2.79232 -0.0667,0.98004 -0.12999,1.05833 -0.85498,1.05833 -0.67051,0 -0.8081,-0.12321 -0.95844,-0.85826 -0.21574,-1.05488 -0.68777,-1.65528 -1.30136,-1.65528 -1.01527,0 -1.19063,0.70145 -1.19063,4.7625 0,4.18653 0.16279,4.7625 1.346,4.7625 0.72472,0 1.16754,-0.69394 1.16754,-1.82965 0,-0.63418 0.13787,-0.8407 0.64642,-0.96834 0.35554,-0.0892 0.77225,-0.0845 0.92604,0.0106 0.42947,0.26542 0.33432,2.59158 -0.13331,3.25922 -0.89962,1.28439 -2.65627,1.69327 -4.2663,0.99302 z m -71.59681,-0.0416 c -0.1037,-0.10369 -0.18854,-2.96666 -0.18854,-6.36215 v -6.17361 h 1.419 1.419 l 0.45039,2.31511 c 0.6281,3.22862 0.92745,4.29948 1.2019,4.29948 0.28967,0 0.34933,-0.2082 1.08038,-3.77032 l 0.58373,-2.84427 h 1.40743 1.40744 l -0.0529,6.28386 -0.0529,6.28385 h -0.79375 -0.79375 l -0.0732,-3.9026 c -0.0403,-2.14643 -0.18107,-3.90261 -0.3129,-3.90261 -0.31536,0 -0.41023,0.33371 -1.20095,4.22434 -1.02474,5.04204 -1.42895,4.99077 -2.49968,-0.31703 -0.39297,-1.94804 -0.82484,-3.7134 -0.9597,-3.92303 -0.15913,-0.24735 -0.29165,1.05849 -0.37751,3.71989 l -0.13229,4.10104 -0.67136,0.0783 c -0.36925,0.0431 -0.7562,-0.007 -0.85989,-0.11024 z m 11.10877,-0.004 c -0.10165,-0.10164 -0.18481,-2.96293 -0.18481,-6.35842 v -6.17361 h 2.91042 2.91041 v 0.76545 c 0,0.91925 -0.35171,1.08664 -2.28322,1.08664 h -1.44619 l 0.0788,1.65364 0.0788,1.65365 1.24337,0.0801 c 0.96917,0.0624 1.28032,0.19652 1.41092,0.60801 0.26073,0.82149 -0.33569,1.29627 -1.62835,1.29627 h -1.15823 v 1.84705 c 0,2.08467 -0.0382,2.0515 2.51354,2.18486 1.21628,0.0636 1.32292,0.12245 1.32292,0.73059 0,0.65906 -0.0102,0.66173 -2.79176,0.73603 -1.53546,0.041 -2.87492,-0.009 -2.97656,-0.11025 z m 7.94162,0.004 c -0.10391,-0.10391 -0.18893,-2.96705 -0.18893,-6.36254 v -6.17361 h 2.3251 c 2.17617,0 2.38377,0.049 3.24114,0.76475 0.90545,0.7559 0.91605,0.78933 0.91605,2.8891 0,1.87676 -0.0738,2.20294 -0.63342,2.7986 l -0.63342,0.67424 0.83186,2.62411 c 0.45752,1.44326 0.83186,2.70444 0.83186,2.80263 0,0.0982 -0.44572,0.14156 -0.9905,0.0964 l -0.9905,-0.0821 -0.67511,-2.31384 c -0.7234,-2.47934 -1.0438,-3.00531 -1.68164,-2.76055 -0.31475,0.12078 -0.4215,0.7013 -0.48081,2.61482 l -0.0762,2.45957 -0.80326,0.0787 c -0.4418,0.0433 -0.88828,-0.006 -0.99219,-0.11025 z m 3.87909,-7.05533 c 0.25575,-0.187 0.5311,-0.8328 0.61188,-1.43509 0.12583,-0.93815 0.0467,-1.19529 -0.55235,-1.79432 -0.43356,-0.43356 -0.92329,-0.66739 -1.28891,-0.61542 -0.5296,0.0753 -0.59781,0.25619 -0.66944,1.77573 -0.0439,0.93056 -0.0178,1.85329 0.0578,2.05052 0.17414,0.45381 1.23118,0.46448 1.84098,0.0186 z m 5.38133,7.05533 c -0.10391,-0.10391 -0.18893,-2.96705 -0.18893,-6.36254 v -6.17361 h 1.06312 1.06312 l -0.0709,6.28386 -0.0709,6.28385 -0.80326,0.0787 c -0.44179,0.0433 -0.88827,-0.006 -0.99218,-0.11025 z m 12.76945,-0.0178 c -0.003,-0.11836 0.49397,-2.9834 1.1053,-6.36676 l 1.11151,-6.15157 h 1.35053 c 1.20775,0 1.35638,0.0629 1.40591,0.59532 0.0305,0.32742 0.52217,3.09422 1.09269,6.14845 0.57053,3.05423 0.98127,5.64384 0.91276,5.75469 -0.0685,0.11085 -0.46198,0.20154 -0.87439,0.20154 -0.78734,0 -1.07103,-0.38617 -1.07103,-1.45795 0,-0.84017 -0.67059,-1.45246 -1.59078,-1.45246 -0.87202,0 -1.08506,0.25234 -1.45192,1.71979 -0.23372,0.93487 -0.3649,1.068 -1.12448,1.14124 -0.47295,0.0456 -0.86269,-0.0139 -0.8661,-0.13229 z m 4.18056,-4.64697 c 0.4249,-0.51971 -0.29801,-4.70979 -0.73686,-4.27094 -0.31498,0.31498 -0.87696,3.98502 -0.66318,4.33092 0.23195,0.37531 1.07364,0.33924 1.40004,-0.06 z m 4.49998,-1.50549 -0.0754,-6.36629 1.16858,2.1e-4 c 0.64271,1.2e-4 1.10649,0.0623 1.03062,0.13817 -0.21161,0.21161 2.06583,6.08879 2.33069,6.0146 0.12794,-0.0358 0.26615,-1.43483 0.30715,-3.10886 l 0.0745,-3.0437 h 0.92244 0.92243 l -0.0709,6.28386 -0.0709,6.28385 -0.86006,0.0829 c -0.69872,0.0674 -0.90119,-0.0319 -1.07926,-0.52916 -0.12056,-0.33665 -0.66921,-1.89201 -1.21924,-3.45636 -0.55002,-1.56435 -1.1026,-2.84427 -1.22794,-2.84427 -0.12534,0 -0.26122,1.51804 -0.30195,3.37343 l -0.074,3.37344 -0.85066,0.0822 -0.85066,0.0822 z m 11.43399,6.02957 c 0,-0.18595 0.49889,-3.05099 1.10864,-6.36676 l 1.10863,-6.02868 h 1.3472 c 1.20517,0 1.35273,0.0628 1.39967,0.59532 0.0289,0.32742 0.51864,3.09562 1.0884,6.15156 0.56977,3.05594 0.98182,5.64555 0.91567,5.75469 -0.0661,0.10914 -0.45769,0.19843 -0.8701,0.19843 -0.78733,0 -1.07102,-0.38617 -1.07102,-1.45795 0,-0.84017 -0.6706,-1.45246 -1.59079,-1.45246 -0.87202,0 -1.08506,0.25234 -1.45192,1.71979 -0.23372,0.93487 -0.3649,1.068 -1.12448,1.14124 -0.56477,0.0545 -0.8599,-0.0331 -0.8599,-0.25518 z m 4.17745,-4.52408 c 0.18245,-0.22064 0.19116,-0.81515 0.0262,-1.78594 -0.3937,-2.31657 -0.5004,-2.67648 -0.74805,-2.52342 -0.30716,0.18983 -0.90282,3.75132 -0.71101,4.25118 0.18232,0.47509 1.0587,0.51068 1.43288,0.0582 z m 12.83928,3.85604 c 0.0874,-0.55648 0.60073,-3.42279 1.14065,-6.36958 l 0.98167,-5.35782 h 1.35441 c 1.28524,0 1.35776,0.0372 1.42001,0.72761 0.0361,0.40018 0.52407,3.16838 1.08442,6.15156 0.56035,2.98318 0.92784,5.52256 0.81666,5.64308 -0.11119,0.12052 -0.54409,0.18005 -0.962,0.13229 -0.67787,-0.0775 -0.77635,-0.21056 -0.9129,-1.2338 -0.1674,-1.25438 -0.53174,-1.62092 -1.61726,-1.6271 -0.82137,-0.005 -1.03555,0.2548 -1.41579,1.7152 -0.24501,0.94101 -0.37438,1.06841 -1.16228,1.1446 l -0.88658,0.0857 z m 4.09405,-3.85604 c 0.18245,-0.22064 0.19117,-0.81515 0.0262,-1.78594 -0.3937,-2.31657 -0.50039,-2.67648 -0.74805,-2.52342 -0.30716,0.18983 -0.90281,3.75132 -0.711,4.25118 0.18231,0.47509 1.05869,0.51068 1.43287,0.0582 z m 4.49683,-1.52157 -0.0753,-6.35021 2.34156,2.1e-4 c 2.29761,2.1e-4 2.358,0.0166 3.21741,0.87606 1.08857,1.08857 1.28478,2.20702 1.13231,6.45423 -0.16852,4.69411 -0.72325,5.36992 -4.40784,5.36992 h -2.13283 z m 4.14302,4.17468 c 0.3244,-0.46315 0.41188,-1.36228 0.41188,-4.23334 0,-3.29252 -0.0512,-3.6965 -0.52917,-4.17446 -0.59724,-0.59724 -1.32766,-0.68317 -1.79917,-0.21167 -0.33469,0.33469 -0.471,7.97046 -0.1569,8.78899 0.24499,0.63843 1.58413,0.52894 2.07336,-0.16952 z m 4.85281,-4.17468 -0.0753,-6.35021 2.94315,2.1e-4 2.94314,2.1e-4 -0.17459,0.8599 c -0.17159,0.84506 -0.2041,0.86218 -1.88482,0.99219 l -1.71021,0.13229 -0.0846,1.03311 c -0.15486,1.8921 0.0627,2.23523 1.47504,2.32589 1.14514,0.0735 1.26262,0.14365 1.33818,0.79896 0.0877,0.76041 -0.16586,0.89946 -1.93491,1.06115 -0.77246,0.0706 -0.7959,0.11396 -0.87377,1.61623 -0.10603,2.04553 0.13436,2.29278 2.22908,2.29278 h 1.6874 v 0.79375 0.79375 h -2.90126 -2.90126 z m 7.91844,6.18597 c -0.1037,-0.10369 -0.18854,-2.96666 -0.18854,-6.36215 v -6.17361 h 1.40505 1.40506 l 0.61235,3.0144 c 0.3368,1.65792 0.71008,3.17252 0.82952,3.36578 0.42146,0.68193 0.46798,0.53723 1.5624,-4.85882 l 0.30855,-1.52136 h 1.42317 1.42317 l -0.0529,6.28386 -0.0529,6.28385 h -0.79375 -0.79375 l -0.0738,-3.83086 c -0.10784,-5.59927 -0.33035,-5.55138 -1.52795,0.32886 -0.6974,3.42424 -0.77228,3.63429 -1.29562,3.63429 -0.39286,0 -0.401,-0.0275 -1.21085,-4.0914 -0.96543,-4.84458 -1.16337,-4.86593 -1.31576,-0.14193 l -0.13229,4.10104 -0.67136,0.0783 c -0.36925,0.0431 -0.7562,-0.007 -0.85989,-0.11024 z m 12.77604,-2.31989 c 0,-2.22516 -0.11353,-2.8113 -1.08906,-5.62239 -1.7337,-4.99588 -1.68827,-4.59348 -0.51851,-4.59348 h 1.00132 l 0.58822,1.98144 c 0.8859,2.98413 1.22106,2.95453 2.03396,-0.17965 l 0.46733,-1.80179 h 1.14893 c 1.01092,0 1.11958,0.0556 0.90457,0.46302 -0.1344,0.25467 -0.75554,1.89177 -1.38031,3.63802 -0.98845,2.76276 -1.15077,3.52713 -1.25016,5.88698 l -0.11422,2.71198 h -0.89603 -0.89604 z"
         id="path4502"
         inkscape:connector-curvature="0" />
      <path
         style="fill:#2e2e2e;stroke-width:0.26458335"
         d="m 151.56846,259.51429 c -0.62305,-0.25998 -1.5679,-1.3701 -1.73592,-2.03953 -0.0841,-0.33497 -0.11483,-2.60268 -0.0684,-5.03937 l 0.0845,-4.43033 0.74235,-0.63795 c 0.57949,-0.49797 1.04549,-0.63794 2.12395,-0.63794 2.78765,0 3.3514,1.06817 3.3514,6.35 0,3.93094 -0.22702,4.98421 -1.27566,5.91827 -0.5664,0.50451 -2.50618,0.81566 -3.22225,0.51685 z m 2.37194,-2.18439 c 0.15284,-0.28559 0.27389,-2.21504 0.27389,-4.36563 0,-3.50107 -0.0484,-3.90229 -0.52917,-4.38302 -0.63691,-0.63691 -1.14347,-0.67081 -1.70049,-0.11379 -0.63922,0.63923 -0.73095,1.37061 -0.6362,5.0729 0.0616,2.408 0.19579,3.55806 0.45086,3.86473 0.50627,0.60868 1.79942,0.56327 2.14111,-0.0752 z m -30.07377,-4.18458 0.0529,-6.28386 h 0.79375 0.79375 l 0.13229,6.28414 0.13229,6.28414 -0.97891,-2.6e-4 -0.9789,-3.1e-4 z m 4.68308,2.8e-4 0.13229,-6.28414 h 0.78766 c 0.76243,0 0.82347,0.0967 1.90504,3.01629 1.68392,4.54565 1.88838,4.53483 1.99987,-0.10587 0.0699,-2.90941 0.0702,-2.91042 0.73139,-2.91042 h 0.66146 l 0.13229,6.28414 0.13229,6.28414 -1.0078,-2.6e-4 c -0.5543,-1.6e-4 -0.95462,-0.0896 -0.88961,-0.19873 0.18289,-0.30705 -2.30757,-7.0776 -2.60341,-7.0776 -0.15626,0 -0.29134,1.46558 -0.33529,3.63802 l -0.0736,3.638 -0.85243,2.9e-4 -0.85242,2.8e-4 z m 12.17083,0 0.13229,-6.28414 1.51131,-0.079 c 3.48853,-0.18247 4.8075,0.90871 4.64262,3.84082 -0.0701,1.24725 -0.23357,1.79526 -0.67582,2.26601 -0.32082,0.3415 -0.58332,0.76837 -0.58332,0.94859 0,0.65076 1.44411,5.19913 1.71096,5.38885 0.15038,0.10691 -0.21319,0.19621 -0.80794,0.19844 l -1.08136,0.004 -0.63843,-2.29742 c -0.71813,-2.58419 -1.20345,-3.38076 -1.89752,-3.11442 -0.38799,0.14889 -0.46565,0.55859 -0.49204,2.59588 -0.0172,1.33049 -0.0172,2.50838 0,2.61752 0.0172,0.10914 -0.41515,0.19857 -0.96085,0.19873 l -0.99219,2.6e-4 z m 4.01406,-1.03348 c 0.34003,-0.30772 0.48386,-0.81333 0.48386,-1.70089 0,-1.52082 -0.47627,-2.09456 -1.73869,-2.09456 h -0.90715 v 1.94028 c 0,1.06715 0.0794,2.01965 0.17639,2.11666 0.33122,0.33122 1.50087,0.17718 1.98559,-0.26149 z m 13.71302,1.03348 0.1323,-6.28414 1.1269,-0.0815 c 1.32287,-0.0956 1.19434,-0.32438 2.02695,3.60731 0.34904,1.64816 0.70692,3.06897 0.79531,3.15736 0.3517,0.3517 0.67647,-0.45103 1.20527,-2.97902 0.77814,-3.72 0.84151,-3.83646 2.08763,-3.83646 0.72155,0 1.08689,0.13343 1.20449,0.43988 0.0928,0.24193 0.15684,3.09943 0.14223,6.35 l -0.0266,5.91012 -0.84152,5.3e-4 -0.84152,5.3e-4 0.0804,-3.89442 c 0.0442,-2.14194 -8e-4,-4.19595 -0.0998,-4.56448 l -0.18014,-0.67029 -0.33078,0.79375 c -0.18193,0.43657 -0.671,2.4904 -1.08683,4.56407 -0.64099,3.19658 -0.82949,3.77031 -1.23871,3.77031 -0.26548,0 -0.42663,-0.0907 -0.35813,-0.20153 0.1267,-0.20499 -1.22751,-7.22068 -1.55707,-8.0667 -0.46163,-1.18507 -0.65537,-0.13626 -0.68425,3.70417 -0.0172,2.29195 -0.0172,4.25648 0,4.36562 0.0172,0.10914 -0.35562,0.19857 -0.82856,0.19873 l -0.8599,2.6e-4 0.13229,-6.28414 z m 11.1125,0 0.1323,-6.28414 h 2.64583 2.64583 v 0.66146 c 0,0.62414 -0.097,0.66892 -1.71979,0.79375 l -1.71979,0.13229 v 1.71979 1.71979 l 1.25677,0.0806 c 1.19083,0.0764 1.25677,0.12076 1.25677,0.8454 0,0.72463 -0.0659,0.76898 -1.25677,0.8454 l -1.25677,0.0806 v 1.98437 1.98438 l 1.85208,0.13229 c 1.80378,0.12884 1.85278,0.15127 1.87879,0.8599 l 0.0267,0.7276 -2.93712,2.6e-4 -2.93712,2.7e-4 0.13229,-6.28414 z m -46.78769,-12.70028 c 0.32912,-1.29371 2.06815,-10.34052 2.13612,-11.1125 0.0461,-0.52345 0.19927,-0.59532 1.26892,-0.59532 h 1.21652 l 1.12751,6.11785 c 1.13849,6.17739 1.15082,6.73593 0.14438,6.54082 -0.44989,-0.0872 -0.67473,-0.55736 -1.02411,-2.14148 -0.1457,-0.66058 -0.26884,-0.7276 -1.33675,-0.7276 -1.27035,0 -1.72406,0.43409 -1.72406,1.64948 0,0.82239 -0.46882,1.26093 -1.34797,1.26093 -0.69236,0 -0.70568,-0.0287 -0.46056,-0.99218 z m 4.33543,-3.79194 c 0.23224,-0.37576 -0.4034,-4.44084 -0.72552,-4.63992 -0.137,-0.0847 -0.30395,-0.0991 -0.37101,-0.032 -0.22236,0.22236 -0.8459,4.26525 -0.71176,4.61482 0.1592,0.41487 1.55985,0.45911 1.80829,0.0571 z m 4.48773,4.47295 c -0.0701,-0.19266 -0.15907,-3.05906 -0.19764,-6.36979 l -0.0701,-6.0195 1.33279,2.3e-4 c 1.26221,2.2e-4 1.33612,0.0388 1.3958,0.72784 0.0347,0.40018 0.33069,1.91823 0.65783,3.37343 0.81693,3.63388 1.1516,3.53647 2.04393,-0.59491 0.38497,-1.78242 0.64025,-3.30046 0.56727,-3.37344 -0.073,-0.073 0.51223,-0.13282 1.30047,-0.13297 l 1.43316,-2.9e-4 -0.13229,6.28414 c -0.12765,6.06366 -0.15086,6.28414 -0.66146,6.28414 -0.50102,0 -0.5362,-0.22048 -0.66146,-4.14548 -0.18766,-5.8807 -0.53251,-5.87178 -1.71863,0.0444 -0.69556,3.46931 -1.06339,4.47886 -1.47422,4.04611 -0.10947,-0.11531 -0.51195,-1.817 -0.89441,-3.78153 -0.72862,-3.74263 -1.09795,-4.95651 -1.41275,-4.6433 -0.10369,0.10317 -0.24806,2.05196 -0.32082,4.33064 -0.1174,3.67676 -0.18449,4.15304 -0.59611,4.23179 -0.2551,0.0488 -0.5212,-0.0689 -0.59134,-0.26155 z m 11.1087,-0.01 c -0.068,-0.1872 -0.15527,-3.04914 -0.19384,-6.35987 l -0.0701,-6.0195 2.79845,2.3e-4 2.79845,2.3e-4 -0.1165,0.79375 c -0.11378,0.77523 -0.1516,0.79375 -1.62105,0.79375 -0.82751,0 -1.64743,0.14288 -1.82206,0.3175 -0.34814,0.34815 -0.42794,2.5388 -0.11066,3.03771 0.1093,0.17187 0.73256,0.35046 1.38501,0.39687 1.07282,0.0763 1.19429,0.15397 1.27,0.81199 0.08,0.69544 0.0326,0.7276 -1.07156,0.7276 -0.63541,0 -1.29816,0.14287 -1.47279,0.3175 -0.3293,0.32931 -0.43851,2.76345 -0.1569,3.49732 0.12516,0.32615 0.56696,0.41851 2.00195,0.41851 h 1.84135 l -0.0837,0.72761 -0.0837,0.7276 -2.58429,0.0758 c -1.92148,0.0564 -2.61602,-0.0115 -2.708,-0.26458 z m 7.94092,0.009 c -0.0699,-0.19211 -0.15869,-3.05806 -0.19726,-6.36879 l -0.0701,-6.0195 2.13873,2.3e-4 c 2.04992,2.2e-4 2.18176,0.0374 3.175,0.89602 1.02219,0.88361 1.03627,0.92108 1.03627,2.75681 0,1.5658 -0.0944,1.96154 -0.59531,2.4947 -0.75487,0.80352 -0.74672,1.25238 0.0661,3.64229 0.84455,2.48308 0.84684,2.91041 0.0156,2.91041 -0.82124,0 -0.93381,-0.18864 -1.73685,-2.91041 -0.60563,-2.0527 -0.72608,-2.25619 -1.38015,-2.33179 -0.85804,-0.0992 -0.967,0.22059 -1.06501,3.12554 -0.0619,1.83391 -0.11217,1.99079 -0.66344,2.06907 -0.32807,0.0466 -0.6537,-0.0725 -0.72363,-0.26458 z m 3.87898,-7.00487 c 0.60797,-0.55021 0.64911,-2.38344 0.072,-3.20742 -0.50045,-0.71449 -2.08473,-0.82936 -2.33794,-0.16952 -0.20781,0.54154 -0.20781,2.85476 0,3.3963 0.21388,0.55736 1.64219,0.54515 2.26597,-0.0194 z m 5.38144,7.00487 c -0.0699,-0.19211 -0.15869,-3.05806 -0.19726,-6.36879 l -0.0701,-6.0195 0.92604,-5e-5 0.92604,-6e-5 -0.13229,6.28414 c -0.13207,6.27373 -0.13328,6.28428 -0.72879,6.36884 -0.32807,0.0466 -0.6537,-0.0725 -0.72362,-0.26458 z m 5.59825,-0.22903 c -0.37842,-0.29766 -0.81053,-0.98227 -0.96025,-1.52135 -0.34754,-1.25136 -0.35468,-7.29788 -0.0101,-8.53837 0.49929,-1.79734 2.68481,-2.85234 4.22488,-2.03944 0.9471,0.49991 1.86003,1.99147 1.86003,3.03896 0,0.86015 -0.0414,0.89969 -0.8599,0.82077 -0.73626,-0.071 -0.87277,-0.19703 -0.94945,-0.87666 -0.11539,-1.02272 -0.48596,-1.45521 -1.24686,-1.45521 -1.28651,0 -1.44171,0.51473 -1.44171,4.7814 0,3.59708 0.0473,3.99712 0.52917,4.47902 0.29104,0.29104 0.68931,0.52917 0.88503,0.52917 0.58712,0 1.18469,-0.86662 1.2771,-1.85209 0.0778,-0.82989 0.1761,-0.93465 0.94672,-1.00895 0.84469,-0.0814 0.8599,-0.0636 0.8599,1.00958 0,2.10938 -1.01859,3.15956 -3.07317,3.16849 -0.96932,0.004 -1.54864,-0.1477 -2.04141,-0.53532 z m 7.23124,-0.15122 c 0,-0.40017 0.41588,-2.94156 0.92416,-5.64755 0.50829,-2.70599 0.95098,-5.24399 0.98375,-5.64 0.0559,-0.67496 0.13879,-0.72003 1.3248,-0.72003 0.69587,0 1.26521,0.0948 1.26521,0.2107 0,0.11589 0.48286,2.81077 1.07302,5.98863 0.59016,3.17786 1.00741,5.94889 0.92722,6.15785 -0.0827,0.21545 -0.40361,0.34327 -0.74131,0.29523 -0.48045,-0.0683 -0.64932,-0.34034 -0.87391,-1.40762 -0.27816,-1.32186 -0.27929,-1.32298 -1.42598,-1.40603 -1.38616,-0.10039 -1.65515,0.13201 -1.85097,1.59922 -0.1323,0.99129 -0.23994,1.13999 -0.87838,1.21345 -0.63765,0.0734 -0.72761,-0.006 -0.72761,-0.64385 z m 4.13201,-4.18765 c 0.0807,-0.21019 0.0118,-1.25169 -0.15315,-2.31444 -0.28482,-1.83572 -0.60924,-2.61329 -0.9487,-2.27384 -0.22165,0.22165 -0.84141,4.26062 -0.71292,4.64609 0.15168,0.45506 1.63611,0.40778 1.81477,-0.0578 z m 4.51428,4.70692 c -0.10751,-0.10751 -0.18392,-2.97004 -0.16979,-6.36116 l 0.0257,-6.16569 h 0.85409 c 0.85143,0 0.85767,0.01 2.00103,3.18066 1.04015,2.88453 1.44985,3.67955 1.74437,3.38503 0.056,-0.056 0.1207,-1.55624 0.14369,-3.33378 l 0.0418,-3.23191 0.83089,-2.8e-4 0.83089,-2.9e-4 -0.13229,6.28414 -0.13229,6.28414 h -0.66146 c -0.59226,0 -0.75227,-0.24912 -1.52951,-2.38125 -0.47743,-1.30969 -1.05507,-2.89315 -1.28365,-3.51882 -0.70025,-1.91669 -1.0112,-1.24884 -1.15559,2.48188 -0.12341,3.18873 -0.16854,3.42338 -0.67234,3.4955 -0.29703,0.0425 -0.62802,-0.0107 -0.73554,-0.11817 z m 11.38235,-0.0253 c -0.061,-0.10914 0.34581,-2.63922 0.90406,-5.6224 0.55824,-2.98318 1.04318,-5.75138 1.07764,-6.15156 0.0589,-0.6837 0.13907,-0.72761 1.32928,-0.72761 0.69665,0 1.26664,0.10505 1.26664,0.23345 0,0.1284 0.48231,2.8247 1.0718,5.99179 0.58949,3.16709 1.00674,5.92788 0.92723,6.13511 -0.0815,0.21246 -0.40429,0.33983 -0.74011,0.29206 -0.4802,-0.0683 -0.6497,-0.34087 -0.87528,-1.40762 l -0.27976,-1.32291 h -1.30234 c -1.39709,0 -1.43317,0.0402 -1.83954,2.05052 -0.11179,0.55298 -0.30088,0.7276 -0.78789,0.7276 -0.35244,0 -0.69072,-0.0893 -0.75173,-0.19843 z m 4.2117,-4.68164 c 0.0807,-0.21019 0.0118,-1.25169 -0.15315,-2.31444 -0.28482,-1.83572 -0.60924,-2.61329 -0.9487,-2.27384 -0.22164,0.22165 -0.84141,4.26062 -0.71292,4.64609 0.15169,0.45506 1.63611,0.40778 1.81477,-0.0578 z m 5.6885,4.44862 c -1.08234,-0.7581 -1.35396,-1.90527 -1.35236,-5.71161 0.002,-3.97613 0.23233,-5.12889 1.21006,-6.04742 0.8991,-0.84465 2.93605,-0.90465 3.82429,-0.11264 0.71145,0.63437 1.31418,1.97298 1.31418,2.91868 0,0.61402 -0.0901,0.67794 -0.85056,0.60381 -0.71202,-0.0694 -0.87752,-0.21595 -1.01611,-0.89975 -0.24233,-1.19561 -0.45944,-1.43212 -1.31464,-1.43212 -0.48933,0 -0.8684,0.18605 -1.04272,0.51178 -0.15284,0.28558 -0.27389,2.21504 -0.27389,4.36562 0,3.50108 0.0484,3.90229 0.52917,4.38302 0.29104,0.29104 0.6893,0.52917 0.88503,0.52917 0.58712,0 1.18469,-0.86662 1.27709,-1.85209 0.0781,-0.83325 0.16637,-0.92604 0.88058,-0.92604 0.6416,0 0.81133,0.12456 0.88544,0.64983 0.16404,1.16253 -0.44795,2.62287 -1.27933,3.0528 -1.01478,0.52476 -2.9041,0.50778 -3.67623,-0.033 z m 7.0252,0.23302 c -0.0654,-0.10914 0.34028,-2.63922 0.90145,-5.6224 0.56117,-2.98318 1.04968,-5.75138 1.08557,-6.15156 0.0609,-0.67932 0.14636,-0.72761 1.28737,-0.72761 h 1.22212 l 0.99568,5.40539 c 1.24247,6.74526 1.26837,7.13525 0.48124,7.24702 -0.63118,0.0896 -0.66649,0.0346 -1.12418,-1.75227 l -0.2916,-1.13841 -1.2378,0.0801 c -1.31289,0.0849 -1.37351,0.15779 -1.7723,2.13059 -0.11178,0.55298 -0.30087,0.7276 -0.78789,0.7276 -0.35244,0 -0.69428,-0.0893 -0.75966,-0.19843 z m 4.20204,-4.58569 c 0.23223,-0.37576 -0.40341,-4.44084 -0.72553,-4.63992 -0.137,-0.0847 -0.30395,-0.0991 -0.371,-0.032 -0.22236,0.22236 -0.84591,4.26525 -0.71176,4.61482 0.1592,0.41487 1.55985,0.45911 1.80829,0.0571 z m 4.52865,4.60773 c -0.097,-0.097 -0.17639,-2.95451 -0.17639,-6.35 v -6.17361 h 2.24896 c 1.23692,0 2.24896,0.11104 2.24896,0.24676 0,0.13571 0.24899,0.32578 0.55332,0.42237 1.00597,0.31928 1.29884,1.64417 1.29777,5.87081 -0.001,4.57763 -0.28287,5.391 -2.03577,5.87777 -1.11792,0.31044 -3.86207,0.38069 -4.13685,0.1059 z m 4.10143,-1.86159 c 0.45164,-0.54419 0.62945,-6.24123 0.23978,-7.68279 -0.31085,-1.15 -0.93478,-1.5597 -2.04928,-1.34563 -0.44274,0.085 -0.49015,0.47556 -0.55678,4.58615 -0.0613,3.78121 -0.009,4.53999 0.33104,4.78851 0.49988,0.36553 1.59983,0.1784 2.03524,-0.34624 z m 4.84955,1.71656 c -0.068,-0.18702 -0.15514,-3.04881 -0.19371,-6.35954 l -0.0701,-6.0195 2.95368,2.3e-4 2.95368,2.3e-4 -0.19326,0.72761 c -0.18025,0.67859 -0.30792,0.73651 -1.89535,0.85989 l -1.70208,0.13229 v 1.7198 1.71979 l 1.10387,0.0803 c 2.13507,0.15541 2.27341,1.5559 0.16698,1.69051 l -1.27085,0.0812 v 1.98438 1.98437 l 1.85208,0.13229 c 1.76389,0.126 1.85208,0.16379 1.85208,0.79375 0,0.65771 -0.0154,0.66189 -2.71671,0.73692 -2.02777,0.0563 -2.74805,-0.0108 -2.84029,-0.26459 z m 7.94143,0.0102 c -0.0701,-0.19266 -0.15907,-3.05906 -0.19764,-6.36979 l -0.0701,-6.0195 1.33278,2.3e-4 c 1.2628,2.2e-4 1.33597,0.0384 1.39343,0.72784 0.0334,0.40018 0.32658,1.91823 0.6516,3.37343 0.81062,3.62939 1.1433,3.53217 2.04247,-0.59685 0.38839,-1.78347 0.64732,-3.30152 0.5754,-3.37343 -0.0719,-0.0719 0.51417,-0.13089 1.30241,-0.13104 l 1.43316,-2.9e-4 -0.13229,6.28414 c -0.12765,6.06366 -0.15086,6.28414 -0.66146,6.28414 -0.50102,0 -0.5362,-0.22048 -0.66146,-4.14548 -0.12239,-3.83517 -0.27392,-4.79692 -0.69019,-4.38065 -0.0886,0.0886 -0.52134,1.92412 -0.96172,4.079 -0.77963,3.81486 -1.13295,4.82196 -1.54094,4.3922 -0.10947,-0.11531 -0.51195,-1.817 -0.89441,-3.78153 -0.72862,-3.74263 -1.09795,-4.95651 -1.41275,-4.6433 -0.10369,0.10317 -0.24806,2.05196 -0.32082,4.33064 -0.1174,3.67676 -0.18449,4.15304 -0.59611,4.23179 -0.25511,0.0488 -0.52121,-0.0689 -0.59134,-0.26155 z m 12.75307,0.14693 c -0.1037,-0.10369 -0.18854,-1.33962 -0.18854,-2.74651 0,-2.38906 -0.0851,-2.79672 -1.28843,-6.17361 l -1.28843,-3.61564 h 1.03946 c 0.57171,0 0.98674,0.0893 0.92231,0.19844 -0.22069,0.37379 1.26957,4.16719 1.6371,4.16719 0.34982,0 1.29728,-2.5202 1.41744,-3.77031 0.0502,-0.52206 0.20477,-0.59482 1.25628,-0.59127 0.65949,0.002 1.07292,0.0915 0.91874,0.19844 -0.15418,0.10691 -0.79976,1.62314 -1.43463,3.36939 -1.01537,2.79286 -1.1727,3.52529 -1.30717,6.08541 -0.15089,2.8726 -0.1616,2.91144 -0.82423,2.98871 -0.36925,0.0431 -0.75621,-0.007 -0.8599,-0.11024 z"
         id="path4500"
         inkscape:connector-curvature="0" />
      <path
         style="fill:#050505;stroke-width:0.26458335"
         d="m 152.02226,259.5096 c -0.77977,-0.20274 -1.78268,-1.29534 -2.05247,-2.23604 -0.35678,-1.24402 -0.28962,-7.57252 0.0923,-8.69231 0.63847,-1.87226 3.56762,-2.39325 4.98329,-0.88634 0.60813,0.64732 0.62417,0.78684 0.62417,5.42848 v 4.7641 l -0.74236,0.63855 c -0.4083,0.3512 -0.64642,0.65042 -0.52916,0.66492 0.32853,0.0406 -1.05722,0.45062 -1.50661,0.44573 -0.21828,-0.002 -0.60938,-0.0596 -0.86911,-0.12709 z m 1.81073,-1.77834 c 0.46222,-0.33747 0.52082,-0.76751 0.58585,-4.29947 0.0828,-4.49401 -0.10668,-5.19774 -1.43417,-5.32785 -1.53196,-0.15014 -1.6808,0.28439 -1.6808,4.90715 0,3.46934 0.0698,4.2046 0.43789,4.61131 0.52382,0.57882 1.3861,0.62371 2.09123,0.10886 z m -29.91349,1.54498 c 0.16865,-0.0708 0.23716,-2.31767 0.18895,-6.19682 l -0.0756,-6.08567 h 0.66163 0.66162 l 0.0755,6.21793 0.0755,6.21792 -0.92604,-0.0211 c -0.50933,-0.0116 -0.80698,-0.0711 -0.66146,-0.13226 z m 4.56406,-0.0223 c 0.25108,-0.1013 0.33073,-1.59368 0.33073,-6.19681 v -6.06337 h 0.63833 c 0.66922,0 0.67131,0.004 2.54956,5.10791 0.41413,1.12532 0.68254,1.51357 1.0038,1.45199 0.37487,-0.0719 0.4493,-0.55405 0.51281,-3.32197 0.0688,-2.99909 0.11203,-3.23793 0.58599,-3.23793 0.48922,0 0.51501,0.27315 0.58717,6.21793 l 0.0755,6.21792 -0.72761,-2.1e-4 c -0.40018,-1.2e-4 -0.70011,-0.0895 -0.66651,-0.19866 0.1046,-0.33975 -2.23642,-6.79158 -2.61197,-7.19855 -0.7286,-0.78958 -0.92052,0.0785 -0.83736,3.78745 l 0.081,3.61043 -0.92605,-0.0213 c -0.50932,-0.0118 -0.77721,-0.0814 -0.59531,-0.15479 z m 12.10469,-0.0273 c 0.16279,-0.1196 0.26458,-2.48474 0.26458,-6.14751 v -5.95312 l 1.83173,-0.0793 c 3.16922,-0.13716 4.1214,0.62359 4.1214,3.29286 0,1.38807 -0.10776,1.76867 -0.70002,2.47254 l -0.70001,0.83192 0.73403,2.48562 c 0.40371,1.3671 0.70991,2.5748 0.68043,2.68378 -0.0295,0.10899 0.16358,0.28373 0.42901,0.38833 0.32468,0.12794 0.13306,0.19625 -0.58558,0.20876 -0.86913,0.0151 -1.07527,-0.0756 -1.10626,-0.48702 -0.061,-0.80993 -1.16132,-4.35635 -1.46854,-4.73328 -0.15426,-0.18926 -0.58832,-0.30832 -0.96458,-0.26458 -0.67309,0.0782 -0.68624,0.1211 -0.8164,2.65988 -0.0819,1.59775 -0.0315,2.62252 0.13229,2.69109 0.14552,0.0609 -0.2712,0.11831 -0.92604,0.12757 -0.65484,0.009 -1.07156,-0.0706 -0.92604,-0.17755 z m 4.24536,-7.06152 c 0.49902,-0.49902 0.64943,-0.92797 0.64943,-1.85208 0,-1.58668 -0.68945,-2.3243 -2.06559,-2.20991 l -0.97712,0.0812 -0.078,2.09369 c -0.0558,1.49629 0.0197,2.15571 0.26458,2.31105 0.63772,0.40456 1.55433,0.22845 2.20675,-0.42397 z m 13.82177,1.04653 0.0755,-6.21793 h 1.04397 c 0.86607,0 1.06708,0.10145 1.17958,0.59532 0.0746,0.32742 0.38636,1.78593 0.69285,3.24114 0.92518,4.39278 1.33423,4.31304 2.33663,-0.45553 l 0.6829,-3.24864 1.13332,-0.0818 1.13332,-0.0818 -0.0757,6.10135 c -0.0483,3.88967 0.0202,6.14163 0.18887,6.2125 0.14552,0.0611 -0.21166,0.11873 -0.79375,0.12799 -0.66411,0.0106 -0.92831,-0.0656 -0.70928,-0.20449 0.27181,-0.17235 0.33035,-1.19118 0.26458,-4.60482 -0.0465,-2.41092 -0.17575,-4.47446 -0.28731,-4.58563 -0.11157,-0.11117 -0.33482,-0.0702 -0.49612,0.0911 -0.32816,0.32816 -2.10113,8.81456 -1.90711,9.12849 0.0681,0.11014 -0.15115,0.19086 -0.48716,0.17937 -0.33601,-0.0115 -0.48616,-0.0729 -0.33367,-0.13652 0.1803,-0.0752 -0.0131,-1.52518 -0.55294,-4.14629 -0.99018,-4.8074 -1.13127,-5.28131 -1.53271,-5.14824 -0.40151,0.1331 -0.69993,9.13503 -0.30828,9.29924 0.14552,0.061 -0.0926,0.12042 -0.52916,0.13203 l -0.79375,0.0211 0.0755,-6.21792 z m 10.8386,6.04226 c 0.25108,-0.10131 0.33073,-1.59369 0.33073,-6.19682 v -6.06337 h 2.51354 c 2.33715,0 2.51354,0.0371 2.51354,0.52917 0,0.46834 -0.17639,0.52917 -1.53458,0.52917 -0.84402,0 -1.67746,0.14287 -1.85209,0.3175 -0.41223,0.41223 -0.41223,3.1861 0,3.59833 0.17463,0.17462 0.82947,0.3175 1.45521,0.3175 0.96132,0 1.13771,0.082 1.13771,0.52917 0,0.44712 -0.17639,0.52916 -1.13771,0.52916 -0.62574,0 -1.28058,0.14288 -1.45521,0.3175 -0.18491,0.18492 -0.3175,1.07155 -0.3175,2.12322 0,1.69486 0.0417,1.82155 0.67869,2.06375 0.37327,0.14192 1.28013,0.25803 2.01523,0.25803 1.19535,0 1.32228,0.0546 1.20149,0.51648 -0.0743,0.28407 0.001,0.57233 0.16758,0.64058 0.16645,0.0682 -1.12611,0.12408 -2.87236,0.12408 -1.74625,0 -3.02617,-0.06 -2.84427,-0.13345 z m -46.76511,-18.67163 c 0,-0.41994 0.0991,-0.70229 0.22021,-0.62744 0.12112,0.0748 0.60536,-2.03148 1.0761,-4.68074 0.47073,-2.64926 0.95831,-5.13722 1.08349,-5.5288 0.15568,-0.48697 0.12916,-0.75211 -0.0839,-0.839 -0.17133,-0.0699 0.2838,-0.13637 1.01141,-0.14775 1.19111,-0.0186 1.3266,0.0386 1.35994,0.57442 0.0204,0.32732 0.46685,2.93691 0.99219,5.79908 1.13908,6.20603 1.13289,6.10289 0.35984,5.9931 -0.48338,-0.0687 -0.62409,-0.3002 -0.74838,-1.23152 -0.17587,-1.31788 -0.52383,-1.62144 -1.86505,-1.62711 -1.1497,-0.005 -1.47434,0.33221 -1.70415,1.76935 -0.15075,0.94272 -0.27421,1.10045 -0.93765,1.19782 -0.69173,0.10152 -0.76404,0.0399 -0.76404,-0.65141 z m 4.47854,-3.75166 c 0.23808,-0.28687 0.21777,-0.90186 -0.0876,-2.65114 -0.4144,-2.37411 -0.55882,-2.79617 -0.95681,-2.79617 -0.48796,0 -1.31936,4.91109 -0.93631,5.53086 0.2567,0.41535 1.61415,0.35809 1.98068,-0.0836 z m 38.91681,4.14342 c -1.4284,-0.71641 -1.58303,-1.29023 -1.58629,-5.88657 -0.003,-3.62576 0.0579,-4.20069 0.52138,-4.96093 0.28836,-0.47295 0.65213,-0.8599 0.80837,-0.8599 0.15625,0 0.21857,-0.10601 0.1385,-0.23557 -0.22223,-0.35957 1.46663,-0.58365 2.36332,-0.31357 0.43656,0.13149 0.71361,0.24931 0.61566,0.26182 -0.0979,0.0125 0.17725,0.37806 0.61154,0.81235 0.64512,0.64513 0.77454,0.97193 0.70725,1.78594 -0.0649,0.78495 -0.19233,0.99632 -0.60069,0.99632 -0.3721,0 -0.56783,-0.24211 -0.69385,-0.85826 -0.22976,-1.12339 -0.69478,-1.65528 -1.44716,-1.65528 -1.46405,0 -1.8021,1.19646 -1.66764,5.90228 0.10277,3.59696 0.31159,4.15189 1.56235,4.15189 0.99632,0 1.574,-0.63813 1.574,-1.73869 0,-0.79123 0.0845,-0.90715 0.66146,-0.90715 0.57717,0 0.66145,0.1158 0.66145,0.90882 0,1.44339 -0.43843,2.25527 -1.44502,2.67586 -1.18968,0.49707 -1.66217,0.48361 -2.78463,-0.0794 z m 37.4016,0.28102 c -0.30934,-0.0607 -0.84512,-0.41126 -1.19063,-0.77904 -0.61318,-0.6527 -0.62819,-0.78249 -0.62819,-5.43277 v -4.76409 l 0.71072,-0.61134 c 0.3909,-0.33623 0.65324,-0.66882 0.58298,-0.73908 -0.26982,-0.26982 1.65574,-0.43857 2.41047,-0.21124 0.43656,0.13149 0.69781,0.24931 0.58056,0.26182 -0.11726,0.0125 0.10908,0.29995 0.50297,0.63876 0.56621,0.48703 0.72165,0.86098 0.74236,1.78593 0.0222,0.99429 -0.0516,1.16992 -0.49213,1.16992 -0.37211,0 -0.56784,-0.24211 -0.69385,-0.85826 -0.32522,-1.59015 -1.35975,-2.11835 -2.50757,-1.28029 -0.46222,0.33748 -0.52082,0.76752 -0.58585,4.29948 -0.0813,4.41548 0.11597,5.18996 1.35856,5.33338 1.01557,0.11723 1.75641,-0.60593 1.75641,-1.71448 0,-0.76765 0.0877,-0.88504 0.66145,-0.88504 0.58133,0 0.66146,0.11378 0.66146,0.93918 0,2.21372 -1.49439,3.31322 -3.86972,2.84716 z m -71.94449,-0.41251 c -0.078,-0.2032 -0.10738,-2.95056 -0.0653,-6.10525 0.0486,-3.64673 -0.0199,-5.77627 -0.18816,-5.84692 -0.14552,-0.0611 0.44979,-0.11113 1.32292,-0.11113 0.87312,0 1.43793,0.0603 1.25512,0.134 -0.18281,0.0737 -0.27024,0.23455 -0.19429,0.35744 0.076,0.12288 0.41998,1.61091 0.76452,3.30672 0.94091,4.63122 1.41184,4.73871 2.27211,0.51862 0.29586,-1.45132 0.64717,-2.95915 0.7807,-3.35073 0.16983,-0.49804 0.14918,-0.75013 -0.0687,-0.839 -0.17133,-0.0699 0.40286,-0.12705 1.27599,-0.12705 0.87312,0 1.43867,0.06 1.25677,0.13345 -0.25113,0.10133 -0.33073,1.59757 -0.33073,6.21622 0,5.6506 -0.0329,6.07645 -0.46302,5.99386 -0.41502,-0.0797 -0.47059,-0.54052 -0.53601,-4.44478 -0.0401,-2.39573 -0.18624,-4.46913 -0.32466,-4.60755 -0.39826,-0.39826 -0.91321,1.20055 -1.71739,5.33213 -0.40362,2.07367 -0.82409,3.77031 -0.93437,3.77031 -0.2373,0 -0.27335,-0.1441 -1.19127,-4.7625 -1.20344,-6.05491 -1.66699,-5.9849 -1.77176,0.26761 -0.0655,3.90718 -0.12076,4.36504 -0.5368,4.44493 -0.2551,0.049 -0.52762,-0.0772 -0.6056,-0.28038 z m 11.1087,-0.01 c -0.0759,-0.19775 -0.10358,-2.94064 -0.0615,-6.09533 0.0486,-3.64673 -0.0199,-5.77627 -0.18816,-5.84692 -0.14552,-0.0611 1.10464,-0.11113 2.77813,-0.11113 1.67349,0 2.90652,0.0558 2.74006,0.12409 -0.16645,0.0683 -0.24186,0.35651 -0.16757,0.64057 0.1202,0.45967 -0.007,0.51688 -1.15257,0.52009 -2.44836,0.007 -2.51089,0.064 -2.42302,2.21291 l 0.0771,1.88452 1.25677,0.0806 c 1.04094,0.0668 1.25677,0.16903 1.25677,0.59532 0,0.38419 -0.18446,0.51558 -0.72761,0.51828 -1.86526,0.009 -1.94604,0.11672 -1.86224,2.4773 l 0.0763,2.14929 1.85208,0.1323 c 1.41111,0.10079 1.85208,0.22678 1.85208,0.52916 0,0.55732 -5.09557,0.73872 -5.30655,0.18891 z m 7.94092,0.009 c -0.0778,-0.20265 -0.107,-2.94956 -0.065,-6.10425 0.0486,-3.64673 -0.0199,-5.77627 -0.18816,-5.84692 -0.14552,-0.0611 0.72471,-0.12053 1.93385,-0.13202 1.40319,-0.0133 2.13927,0.0748 2.0349,0.2437 -0.0899,0.14552 0.0519,0.26837 0.31512,0.27299 1.19483,0.021 1.93384,1.26726 1.93384,3.26119 0,1.1631 -0.13171,1.60883 -0.66146,2.2384 -0.80975,0.96233 -0.80971,1.00059 0.004,3.62012 0.80821,2.60204 0.81535,2.83814 0.0825,2.73039 -0.47295,-0.0695 -0.71959,-0.53085 -1.38907,-2.59809 -0.78875,-2.43555 -0.83864,-2.51355 -1.60776,-2.51355 h -0.79375 l -0.13229,2.51355 c -0.12422,2.36014 -0.16869,2.51871 -0.72878,2.59824 -0.33152,0.0471 -0.65931,-0.079 -0.73789,-0.28375 z m 4.0933,-6.7158 c 1.28283,-1.63085 0.23571,-4.1966 -1.63885,-4.01565 l -0.85548,0.0826 -0.0786,1.95962 c -0.0432,1.07778 -0.0172,2.11958 0.0579,2.3151 0.0778,0.20279 0.52952,0.35549 1.05155,0.35549 0.67351,0 1.05994,-0.18407 1.46351,-0.69714 z m 5.16712,6.7158 c -0.0778,-0.20265 -0.107,-2.94956 -0.065,-6.10425 0.0486,-3.64673 -0.0199,-5.77627 -0.18815,-5.84692 -0.14552,-0.0611 0.2712,-0.11871 0.92604,-0.12797 0.65484,-0.009 1.07156,0.0706 0.92604,0.17755 -0.16279,0.1196 -0.26458,2.48474 -0.26458,6.14751 v 5.95313 l -0.5965,0.0847 c -0.33151,0.0471 -0.6593,-0.079 -0.73788,-0.28375 z m 12.92846,-0.26397 c 0.0781,-0.32742 0.57278,-2.96703 1.09919,-5.8658 0.52641,-2.89876 1.01191,-5.35914 1.07888,-5.4675 0.067,-0.10837 -0.0278,-0.25733 -0.21061,-0.33103 -0.1828,-0.0737 0.26674,-0.1434 0.99898,-0.15489 1.26643,-0.0199 1.33429,0.0145 1.39144,0.70514 0.0331,0.39931 0.47574,2.95229 0.98375,5.67328 1.08801,5.82754 1.10182,6.03611 0.39954,6.03611 -0.35973,0 -0.57026,-0.22822 -0.67121,-0.7276 -0.39301,-1.9442 -0.47296,-2.04609 -1.6734,-2.13284 -1.43126,-0.10342 -1.79132,0.1967 -2.01351,1.67834 -0.15655,1.04395 -0.25602,1.1821 -0.85119,1.1821 -0.5646,0 -0.65088,-0.0966 -0.53186,-0.59531 z m 4.10253,-3.60394 c 0.28749,-0.18226 0.29331,-0.62315 0.0322,-2.44334 -0.37637,-2.62419 -0.65593,-3.31467 -1.16945,-2.88848 -0.40483,0.33598 -1.0923,4.50192 -0.84798,5.1386 0.17428,0.45418 1.38736,0.57225 1.98519,0.19322 z m 4.60058,-1.86676 c 0.0483,-3.89234 -0.0202,-6.14561 -0.18886,-6.21648 -0.14552,-0.0611 0.18893,-0.12055 0.74322,-0.13204 0.55429,-0.0115 0.95639,0.0684 0.89354,0.17755 -0.0628,0.10914 0.43836,1.68672 1.11377,3.50573 1.64633,4.43383 1.9682,4.42381 2.14426,-0.0668 0.0834,-2.12627 0.0344,-3.41502 -0.13229,-3.48484 -0.14552,-0.0609 0.21167,-0.11836 0.79375,-0.12762 0.58209,-0.009 0.93927,0.0706 0.79375,0.17755 -0.16279,0.1196 -0.26458,2.48474 -0.26458,6.14751 v 5.95313 h -0.63246 c -0.55986,0 -0.73495,-0.28854 -1.52524,-2.51354 -1.5841,-4.45996 -1.71688,-4.7625 -2.09005,-4.7625 -0.29226,0 -0.3826,0.74506 -0.44114,3.63802 -0.0721,3.56327 -0.086,3.63978 -0.67851,3.72382 l -0.60489,0.0858 z m 11.42736,5.33841 c 0.0819,-0.40019 0.57689,-3.04595 1.09998,-5.87947 0.5231,-2.83352 1.00208,-5.23437 1.06441,-5.33521 0.0623,-0.10085 -0.0362,-0.24366 -0.21906,-0.31736 -0.18281,-0.0737 0.26293,-0.14316 0.99054,-0.15436 1.25829,-0.0194 1.32569,0.0152 1.37986,0.70671 0.0313,0.3999 0.4778,2.97508 0.99218,5.72263 1.0987,5.86863 1.10667,5.98466 0.41112,5.98466 -0.35973,0 -0.57026,-0.22822 -0.67121,-0.7276 -0.39301,-1.9442 -0.47295,-2.04609 -1.6734,-2.13284 -1.43021,-0.10335 -1.82271,0.22159 -2.04313,1.69145 -0.15278,1.01883 -0.25911,1.16899 -0.82774,1.16899 -0.57146,0 -0.63396,-0.0903 -0.50355,-0.7276 z m 4.0804,-3.47165 c 0.28748,-0.18226 0.2933,-0.62315 0.0322,-2.44334 -0.37638,-2.62419 -0.65593,-3.31467 -1.16946,-2.88848 -0.40483,0.33598 -1.0923,4.50192 -0.84798,5.1386 0.17429,0.45418 1.38736,0.57225 1.9852,0.19322 z m 12.74609,4.09956 c 0,-0.36777 2.15564,-11.65556 2.25728,-11.82002 0.07,-0.11326 -0.0223,-0.26623 -0.20511,-0.33993 -0.18281,-0.0737 0.26294,-0.14332 0.99054,-0.1547 1.19112,-0.0186 1.32661,0.0386 1.35995,0.57442 0.0204,0.32732 0.46685,2.93691 0.99218,5.79908 1.13909,6.20603 1.1329,6.10289 0.35985,5.9931 -0.48339,-0.0687 -0.62409,-0.3002 -0.74838,-1.23152 -0.17588,-1.31788 -0.52384,-1.62144 -1.86506,-1.62711 -1.15411,-0.005 -1.47423,0.33151 -1.70825,1.79502 -0.15082,0.94314 -0.27271,1.11135 -0.80536,1.11135 -0.3452,0 -0.62764,-0.0449 -0.62764,-0.0997 z m 4.21395,-4.24258 c 0.23816,-0.28696 0.21614,-0.91122 -0.095,-2.69387 -0.42269,-2.42168 -0.78398,-3.17576 -1.19946,-2.50351 -0.3379,0.54674 -0.90939,4.64692 -0.71742,5.14718 0.20353,0.53041 1.58476,0.56487 2.0119,0.0502 z m 4.4606,-1.84889 -0.0756,-6.24469 2.06614,2.2e-4 c 1.14551,1.2e-4 2.00104,0.10553 1.92005,0.23657 -0.0803,0.13 0.14859,0.31032 0.50874,0.40071 1.01694,0.25524 1.52213,1.55672 1.66508,4.28963 0.18339,3.50612 -0.11323,5.78283 -0.86768,6.65993 -0.56534,0.65725 -0.80337,0.72417 -2.87872,0.8094 l -2.26243,0.0929 z m 4.02545,4.60366 c 0.48213,-0.48213 0.52917,-0.88194 0.52917,-4.49792 0,-3.61597 -0.047,-4.01578 -0.52917,-4.49791 -0.58783,-0.58783 -1.83847,-0.70153 -2.32833,-0.21167 -0.33487,0.33487 -0.4723,8.49625 -0.1569,9.31815 0.2352,0.61292 1.83279,0.54179 2.48523,-0.11065 z m 4.97026,-4.63042 -0.0755,-6.21793 2.67529,2.2e-4 2.67529,2.1e-4 -0.12644,0.66146 c -0.11163,0.58392 -0.26039,0.66146 -1.26901,0.66146 -0.6284,0 -1.44796,0.11612 -1.82123,0.25803 -0.62114,0.23616 -0.67834,0.38759 -0.67464,1.78594 0.002,0.84035 0.0935,1.66853 0.20279,1.8404 0.1093,0.17187 0.73153,0.35047 1.38273,0.39688 0.87612,0.0624 1.20683,0.20477 1.27182,0.5474 0.0706,0.37223 -0.10095,0.46302 -0.87501,0.46302 -1.72031,0 -1.98638,0.31311 -1.98638,2.33764 0,1.03933 0.13314,1.92299 0.3175,2.10736 0.17975,0.17975 1.0407,0.3175 1.98438,0.3175 1.49048,0 1.66687,0.056 1.66687,0.52916 0,0.49377 -0.17639,0.52917 -2.63651,0.52917 h -2.63651 z m 7.85095,5.88758 c -0.078,-0.2032 -0.10738,-2.95056 -0.0653,-6.10525 0.0486,-3.64673 -0.0199,-5.77627 -0.18816,-5.84692 -0.14552,-0.0611 0.44979,-0.11113 1.32292,-0.11113 0.87312,0 1.45993,0.053 1.30402,0.1177 -0.19016,0.079 -0.0823,1.0084 0.32778,2.82338 0.3362,1.48813 0.61259,2.89129 0.61421,3.11814 0.005,0.6791 0.71937,1.48065 1.03935,1.16593 0.15305,-0.15053 0.52329,-1.51975 0.82274,-3.0427 0.29946,-1.52296 0.65236,-3.02903 0.78422,-3.34683 0.16483,-0.39722 0.14066,-0.6181 -0.0773,-0.70672 -0.1744,-0.0709 0.39729,-0.1289 1.27041,-0.1289 0.87313,0 1.43868,0.06 1.25678,0.13345 -0.25113,0.10133 -0.33073,1.59757 -0.33073,6.21622 0,5.65059 -0.0329,6.07645 -0.46302,5.99387 -0.41447,-0.0796 -0.47021,-0.53246 -0.53158,-4.31888 -0.0377,-2.32649 -0.12841,-4.39222 -0.20157,-4.59051 -0.3502,-0.94919 -0.91529,0.56561 -1.71484,4.59682 -0.4759,2.39947 -0.95521,4.36267 -1.06512,4.36267 -0.23657,0 -0.27294,-0.14549 -1.19059,-4.7625 -1.20344,-6.05491 -1.66699,-5.9849 -1.77176,0.26761 -0.0655,3.90718 -0.12076,4.36504 -0.5368,4.44493 -0.25511,0.049 -0.52762,-0.0772 -0.6056,-0.28038 z m 12.84338,-2.16062 c 0,-2.28776 -0.10105,-2.77879 -1.2387,-6.01927 -0.68128,-1.94057 -1.36589,-3.61579 -1.52136,-3.7227 -0.15546,-0.10691 0.25313,-0.18681 0.90797,-0.17755 0.65485,0.009 1.06136,0.0704 0.90337,0.1358 -0.18656,0.0773 -0.011,0.90893 0.50083,2.37248 1.00729,2.88035 1.38417,2.87716 2.32855,-0.0197 0.37952,-1.16416 0.64039,-2.20596 0.5797,-2.3151 -0.0607,-0.10914 0.34317,-0.19661 0.89746,-0.19439 0.55429,0.002 0.88874,0.0915 0.74322,0.19844 -0.14552,0.10691 -0.83224,1.86126 -1.52605,3.89855 -1.13087,3.32069 -1.26098,3.94385 -1.25677,6.01928 0.005,2.2943 -0.001,2.3151 -0.65677,2.3151 -0.65871,0 -0.66145,-0.0103 -0.66145,-2.49096 z"
         id="path4498"
         inkscape:connector-curvature="0" />
    </g>
  </g>
</svg>
